<svg width="80" height="79" viewBox="0 0 80 79" fill="none" xmlns="http://www.w3.org/2000/svg">
<rect width="80" height="79" rx="8" fill="#3D4098"/>
<g clip-path="url(#clip0_57_23)">
<path d="M38.5255 75.0008C38.4495 74.9888 38.3734 74.9707 38.2954 74.9647C37.3084 74.8926 36.3195 74.8445 35.3346 74.7463C33.8932 74.602 32.4615 74.3796 31.0377 74.0991C25.5588 73.021 20.353 71.1033 15.3149 68.6727C14.8702 68.4583 14.4431 68.2098 14.0081 67.9773C13.9672 67.9553 13.9301 67.9272 13.8735 67.8912C13.9223 67.8391 13.9613 67.795 14.0023 67.7509C14.3299 67.4082 14.6752 67.0816 14.9814 66.7209C15.5373 66.0677 15.8201 65.2922 15.8923 64.4265C15.9527 63.6971 15.9332 62.9698 15.902 62.2424C15.8942 62.062 15.902 61.8817 15.902 61.6592C15.9995 61.7234 16.0776 61.7695 16.1497 61.8236C16.376 61.9939 16.5925 62.1782 16.8265 62.3365C17.0079 62.4588 17.203 62.567 17.4058 62.6431C17.8447 62.8074 18.2387 62.7072 18.5527 62.3506C18.6931 62.1923 18.8063 62.0099 18.9448 61.8195C19.0169 61.8456 19.0949 61.8716 19.1749 61.9017C20.5695 62.4347 21.9602 62.9758 23.3567 63.4968C24.9464 64.0879 26.5711 64.5668 28.2095 64.9936C29.8869 65.4305 31.5779 65.7952 33.2905 66.0456C34.4081 66.21 35.5316 66.3342 36.655 66.4484C38.1452 66.6007 39.6412 66.6468 41.1392 66.6247C42.5571 66.6027 43.9732 66.5165 45.3834 66.3582C48.5158 66.0096 51.5703 65.3022 54.5428 64.2262C56.1675 63.639 57.7513 62.9457 59.2863 62.1422C59.6745 61.9398 60.0724 61.7554 60.5093 61.541C60.5463 61.5991 60.5756 61.6572 60.6126 61.7053C60.757 61.8937 60.9013 62.0841 61.0496 62.2684C61.3655 62.6572 61.7712 62.7934 62.2432 62.6672C62.4734 62.6051 62.6958 62.4948 62.9123 62.3886C63.1229 62.2864 63.3219 62.1562 63.5286 62.046C63.6008 62.0079 63.6807 61.9859 63.788 61.9438C63.788 62.078 63.788 62.1722 63.788 62.2664C63.7978 63.2683 63.8485 64.2662 64.0591 65.2501C64.1489 65.6649 64.2542 66.0737 64.4278 66.4624C64.6111 66.8732 64.8744 67.2099 65.245 67.4583C65.3874 67.5545 65.5239 67.6607 65.6819 67.777C65.6215 67.8331 65.5844 67.8812 65.5356 67.9112C65.2431 68.0936 64.9563 68.2879 64.6521 68.4522C61.74 70.0273 58.7441 71.4079 55.6136 72.4639C53.2574 73.2594 50.8583 73.8826 48.4144 74.3115C47.1544 74.5319 45.8886 74.7102 44.6149 74.8104C43.8776 74.8685 43.1384 74.9106 42.3992 74.9627C42.3231 74.9687 42.247 74.9868 42.171 74.9988H38.5216L38.5255 75.0008ZM33.6396 72.2976C33.7878 72.3196 33.8932 72.3337 34.016 72.3517C34.1077 71.8327 34.1955 71.3298 34.2833 70.8268C34.2989 70.8268 34.3145 70.8268 34.3281 70.8288C34.3515 71.3518 34.3769 71.8768 34.4003 72.4078C34.5056 72.4239 34.5875 72.4359 34.6792 72.4499C34.8274 71.9289 34.9679 71.4279 35.1103 70.929L35.1532 70.939C35.122 71.456 35.0927 71.973 35.0615 72.51C35.1941 72.528 35.3053 72.5421 35.4399 72.5601C35.4594 71.8267 35.4808 71.1173 35.5003 70.396C35.3229 70.3699 35.1727 70.3479 35.0069 70.3238C34.8879 70.7506 34.7728 71.1574 34.6597 71.5642C34.6441 71.5602 34.6304 71.5582 34.6148 71.5542C34.6012 71.1254 34.5895 70.6985 34.5758 70.2557C34.3964 70.2316 34.2384 70.2096 34.0687 70.1876C33.9244 70.9009 33.7859 71.5862 33.6435 72.2976H33.6396ZM52.9532 70.9029C52.8907 70.3839 52.7581 69.893 52.7405 69.382C52.9375 69.8469 53.1345 70.3118 53.3354 70.7867C53.4408 70.7486 53.5168 70.7206 53.6027 70.6905C53.5617 70.1515 53.5246 69.6365 53.4856 69.1215C53.5012 69.1215 53.5168 69.1175 53.5305 69.1155C53.6768 69.5924 53.8231 70.0713 53.9752 70.5683C54.1059 70.5242 54.2171 70.4881 54.3419 70.4461C54.1098 69.7628 53.8894 69.1075 53.6592 68.4302C53.4895 68.4863 53.3393 68.5344 53.1794 68.5865C53.2165 69.0434 53.2496 69.4802 53.2847 69.915C53.275 69.9191 53.2633 69.9231 53.2535 69.9271C53.0897 69.5343 52.9278 69.1416 52.7562 68.7288C52.5884 68.7849 52.4363 68.835 52.2705 68.8891C52.3797 69.6065 52.487 70.3058 52.5982 71.0312C52.7327 70.9831 52.84 70.945 52.9532 70.9029ZM39.1575 72.8927C39.1984 72.1613 39.2374 71.462 39.2784 70.7426C39.1419 70.7346 39.0307 70.7286 38.9059 70.7206C38.8903 70.933 38.8747 71.1234 38.861 71.3137C38.8474 71.5081 38.8395 71.7045 38.8278 71.8988C38.8103 71.8988 38.7927 71.9008 38.7752 71.9028C38.6562 71.4961 38.5372 71.0873 38.4163 70.6805C38.2661 70.6705 38.1374 70.6605 37.9813 70.6505C37.9404 71.3738 37.9014 72.0792 37.8604 72.8006C37.9989 72.8126 38.112 72.8206 38.2447 72.8326C38.272 72.4138 38.2993 72.0191 38.3246 71.6243C38.3402 71.6243 38.3539 71.6223 38.3695 71.6203C38.4924 72.0371 38.6133 72.4539 38.7381 72.8767C38.8805 72.8827 39.0034 72.8887 39.1575 72.8968V72.8927ZM28.8258 71.1755C28.9799 70.4681 29.1282 69.7848 29.2822 69.0855C29.1496 69.0454 29.0423 69.0133 28.9175 68.9752C28.8239 69.386 28.7361 69.7708 28.6483 70.1575C28.5625 69.7628 28.5157 69.374 28.4709 68.9853C28.4631 68.9111 28.4572 68.837 28.3733 68.8129C28.2641 68.7809 28.1529 68.7528 28.0222 68.7168C27.8682 69.4241 27.718 70.1054 27.5658 70.8068C27.6985 70.8468 27.8116 70.8809 27.9403 70.919C28.032 70.5122 28.1198 70.1335 28.2056 69.7547C28.2212 69.7547 28.2387 69.7587 28.2544 69.7607C28.309 70.1936 28.3616 70.6244 28.4162 71.0632C28.5567 71.1013 28.6815 71.1374 28.8258 71.1775V71.1755ZM59.4073 65.8312C59.5477 66.208 59.6823 66.5706 59.8169 66.9333C59.8032 66.9414 59.7915 66.9494 59.7778 66.9594C59.5067 66.6588 59.2337 66.3582 58.9587 66.0537C58.8202 66.1278 58.6992 66.1939 58.5647 66.2681C58.8182 66.9313 59.064 67.5746 59.3175 68.2378C59.4482 68.1697 59.5555 68.1156 59.6725 68.0555C59.5243 67.6627 59.3838 67.29 59.2454 66.9193C59.259 66.9133 59.2727 66.9053 59.2863 66.8993C59.5594 67.2059 59.8325 67.5104 60.1172 67.827C60.2499 67.7569 60.3708 67.6948 60.5054 67.6247C60.2518 66.9594 60.0041 66.3142 59.7505 65.6509C59.6257 65.717 59.5243 65.7711 59.4092 65.8332L59.4073 65.8312ZM19.4928 67.0776C19.4948 67.4684 19.682 67.7429 19.9668 67.8291C20.2496 67.9152 20.5129 67.801 20.6748 67.4704C20.8036 67.2099 20.8913 66.9253 20.981 66.6468C21.0337 66.4785 21.022 66.2981 20.9674 66.1278C20.8855 65.8673 20.7158 65.711 20.4544 65.6629C20.1989 65.6148 20.0117 65.7431 19.879 65.9434C19.643 66.3001 19.5299 66.7069 19.4928 67.0796V67.0776ZM26.1654 69.7607C26.1693 69.8529 26.1654 69.9251 26.1771 69.9952C26.22 70.2838 26.4112 70.4942 26.6862 70.5563C26.9358 70.6124 27.1406 70.5202 27.2733 70.3078C27.5132 69.9211 27.6204 69.4862 27.6107 69.0293C27.6048 68.8089 27.521 68.6045 27.3376 68.4683C27.0197 68.2298 26.6335 68.334 26.4326 68.7188C26.2629 69.0494 26.1908 69.4101 26.1673 69.7607H26.1654ZM52.2354 70.4701C52.2178 70.1836 52.1613 69.8129 51.9857 69.4762C51.7965 69.1155 51.4376 69.0153 51.1197 69.2157C50.9559 69.3199 50.8603 69.4802 50.8369 69.6646C50.7706 70.1796 50.8759 70.6665 51.147 71.1053C51.2953 71.3438 51.5469 71.4039 51.8063 71.3077C52.093 71.1995 52.2373 70.947 52.2373 70.4721L52.2354 70.4701ZM42.8595 72.0471C42.8361 72.1613 42.8322 72.2595 42.7951 72.3437C42.7249 72.502 42.5279 72.508 42.4382 72.3597C42.4148 72.3196 42.3933 72.2716 42.3914 72.2255C42.3797 71.9149 42.3719 71.6043 42.366 71.2917C42.366 71.2616 42.3738 71.2215 42.3953 71.2035C42.4499 71.1514 42.5045 71.0893 42.5708 71.0673C42.6605 71.0392 42.7366 71.0893 42.7795 71.1795C42.799 71.2215 42.8205 71.2636 42.8478 71.3217C42.957 71.2596 43.0565 71.2015 43.152 71.1474C43.0838 70.8288 42.9531 70.6825 42.7112 70.6404C42.4635 70.5964 42.2236 70.7046 42.0929 70.931C42.0461 71.0131 42.0052 71.1033 41.9857 71.1955C41.8959 71.6003 41.9057 72.005 42.0266 72.4038C42.0559 72.5 42.1046 72.5982 42.1651 72.6783C42.3758 72.9549 42.7736 72.9769 43.0077 72.7204C43.0857 72.6343 43.154 72.5301 43.193 72.4198C43.2886 72.1613 43.3061 71.8928 43.2418 71.6023C43.0253 71.6003 42.8127 71.6023 42.5942 71.6504C42.6001 71.7886 42.6059 71.9049 42.6118 72.0271C42.6956 72.0351 42.7561 72.0411 42.8575 72.0491L42.8595 72.0471ZM43.9517 71.8467C43.9673 71.8427 43.9829 71.8407 44.0005 71.8367C44.1136 72.1293 44.2287 72.4218 44.3438 72.7204C44.4842 72.7064 44.6012 72.6944 44.7417 72.6783C44.6071 72.3477 44.4842 72.0491 44.3633 71.7506C44.4218 71.6844 44.4725 71.6343 44.5135 71.5762C44.6734 71.3518 44.6559 71.1093 44.5564 70.8709C44.4647 70.6484 44.2716 70.5803 44.061 70.5803C43.8698 70.5803 43.6787 70.6124 43.4661 70.6324C43.5168 71.3618 43.548 72.0672 43.6163 72.7885C43.7606 72.7705 43.8737 72.7565 44.0063 72.7405C43.9868 72.4299 43.9693 72.1373 43.9517 71.8427V71.8467ZM18.8258 64.8534C18.5742 65.5226 18.3284 66.1739 18.0787 66.8392C18.2075 66.9033 18.3167 66.9594 18.4435 67.0215C18.5605 66.7269 18.6717 66.4444 18.7829 66.1619C18.7985 66.4143 18.7887 66.6528 18.7731 66.8913C18.7536 67.2018 18.7517 67.2019 19.0364 67.3221C19.0559 67.3301 19.0793 67.3301 19.1223 67.3381C19.1379 66.9995 19.1554 66.6668 19.171 66.3262C19.3466 66.2881 19.4967 66.228 19.5845 66.0697C19.7347 65.7952 19.7835 65.4024 19.3895 65.1519C19.2198 65.0437 19.0345 64.9616 18.8297 64.8534H18.8258ZM30.4369 71.6063C30.4194 70.8468 30.4038 70.1154 30.3862 69.384C30.2458 69.346 30.1268 69.3139 29.9922 69.2778C29.6821 69.9351 29.3778 70.5783 29.0618 71.2436C29.1945 71.2817 29.3115 71.3157 29.4324 71.3518C29.487 71.2456 29.5319 71.1554 29.5885 71.0452C29.7445 71.0873 29.8966 71.1294 30.041 71.1694C30.0507 71.3037 30.0566 71.4059 30.0644 71.5201C30.1834 71.5482 30.2945 71.5762 30.4369 71.6103V71.6063ZM17.4936 65.6048C17.5853 65.6429 17.6496 65.6749 17.714 65.697C17.8505 65.7431 17.989 65.7571 18.1217 65.6849C18.4532 65.5086 18.5547 64.8994 18.2992 64.6209C18.1821 64.4927 17.7842 64.2783 17.5794 64.2362C17.3278 64.8734 17.0762 65.5126 16.8187 66.1639C16.9475 66.234 17.0548 66.2921 17.1796 66.3602C17.2849 66.1037 17.3844 65.8653 17.4917 65.6048H17.4936ZM53.9928 68.2739C54.1956 68.9773 54.3887 69.6465 54.5876 70.3318C54.732 70.2717 54.8432 70.2236 54.9621 70.1735C54.8861 69.895 54.8178 69.6365 54.7476 69.38C54.8432 69.3319 54.9153 69.3019 54.9816 69.2638C55.1884 69.1416 55.3054 68.9592 55.2762 68.7107C55.2586 68.5645 55.2196 68.4122 55.1552 68.2799C55.0499 68.0615 54.8529 67.9773 54.6247 68.0435C54.418 68.1036 54.2171 68.1897 53.9908 68.2719L53.9928 68.2739ZM41.2133 72.4679V71.991C41.3479 71.981 41.461 71.971 41.5722 71.963V71.5923C41.4395 71.5842 41.3245 71.5762 41.2074 71.5682V71.1554C41.3615 71.1474 41.498 71.1394 41.6443 71.1294C41.6502 71.0452 41.656 70.9831 41.656 70.921C41.656 70.8609 41.6443 70.7987 41.6385 70.7426C41.3537 70.7005 40.9617 70.7126 40.7978 70.7627V72.8727H41.7009V72.4659H41.2152L41.2133 72.4679ZM62.686 65.8873C62.5163 65.9795 62.37 66.0597 62.212 66.1458C62.1477 65.9935 62.0931 65.8653 62.0384 65.733C62.1594 65.6509 62.2627 65.5828 62.3759 65.5046C62.3252 65.3904 62.2764 65.2862 62.2257 65.172C62.1009 65.2361 61.9916 65.2902 61.8649 65.3563C61.8083 65.2281 61.7576 65.1139 61.703 64.9876C61.8434 64.8954 61.9702 64.8113 62.1048 64.7231C62.0462 64.5949 61.9955 64.4847 61.939 64.3604C61.6679 64.5247 61.4221 64.673 61.1705 64.8273C61.4631 65.4806 61.742 66.1078 62.0267 66.747C62.3213 66.5706 62.5904 66.4184 62.8498 66.248C62.7894 66.1178 62.7445 66.0176 62.686 65.8893V65.8873ZM56.1812 67.819C56.1383 67.6888 56.1012 67.5706 56.0583 67.4363C55.7813 67.5545 55.5239 67.6627 55.2469 67.779C55.4595 68.4643 55.6682 69.1295 55.8808 69.8149C56.1812 69.6866 56.4601 69.5684 56.7527 69.4441C56.7059 69.3039 56.6649 69.1877 56.6239 69.0634C56.4503 69.1295 56.3002 69.1856 56.1344 69.2458C56.0876 69.0875 56.0485 68.9532 56.0056 68.8109C56.1344 68.7468 56.2436 68.6927 56.3665 68.6326C56.3236 68.5063 56.2885 68.3961 56.2494 68.2799C56.1149 68.328 56.0017 68.3681 55.875 68.4142C55.832 68.2699 55.7969 68.1497 55.7579 68.0194C55.9023 67.9513 56.0349 67.8872 56.1812 67.817V67.819ZM59.0601 68.3661C59.0035 68.2278 58.9567 68.1136 58.906 67.9914C58.7402 68.0715 58.5939 68.1416 58.432 68.2198C58.3735 68.0675 58.3208 67.9312 58.2682 67.791C58.3989 67.7168 58.5061 67.6567 58.6251 67.5886C58.5764 67.4644 58.5334 67.3561 58.4886 67.2419C58.3579 67.3 58.2467 67.3501 58.1219 67.4062C58.0712 67.27 58.0263 67.1538 57.9776 67.0275C58.1219 66.9434 58.2526 66.8652 58.3911 66.7831C58.3404 66.6528 58.2994 66.5446 58.2487 66.4143C57.9795 66.5526 57.724 66.6849 57.4568 66.8231C57.7143 67.4944 57.962 68.1437 58.2155 68.8029C58.51 68.6506 58.7734 68.5144 59.064 68.3641L59.0601 68.3661ZM21.8744 68.6526C22.1689 68.7809 22.4459 68.9011 22.7384 69.0293C22.7852 68.8931 22.8242 68.7749 22.8672 68.6446C22.6994 68.5645 22.5473 68.4943 22.3795 68.4162C22.4322 68.2619 22.481 68.1236 22.5297 67.9813C22.6604 68.0334 22.7677 68.0755 22.8964 68.1276C22.9354 68.0014 22.9705 67.8832 23.0076 67.7629C22.875 67.6988 22.7677 67.6447 22.6467 67.5866C22.6936 67.4463 22.7326 67.3281 22.7774 67.1958C22.9315 67.254 23.0661 67.3061 23.2163 67.3642C23.2572 67.2279 23.2943 67.1117 23.3333 66.9794C23.0583 66.8592 22.8028 66.749 22.5258 66.6268C22.3054 67.3061 22.0909 67.9693 21.8705 68.6526H21.8744ZM33.5967 70.6505C33.6201 70.5122 33.6318 70.41 33.6532 70.3078C33.6767 70.1996 33.6376 70.1295 33.546 70.0693C33.2144 69.8569 32.8321 70.0092 32.7404 70.398C32.6858 70.6304 32.7521 70.8408 32.8692 71.0372C32.9452 71.1654 33.0389 71.2857 33.1149 71.4159C33.1676 71.5081 33.1929 71.6203 33.0954 71.7005C33.0057 71.7746 32.9023 71.7486 32.8146 71.6844C32.7482 71.6363 32.6897 71.5742 32.6058 71.4981C32.5824 71.6403 32.5571 71.7546 32.5493 71.8708C32.5454 71.9189 32.5727 71.979 32.6039 72.0171C32.8458 72.2976 33.2749 72.2555 33.4563 71.9289C33.5557 71.7506 33.6025 71.5502 33.5304 71.3518C33.4777 71.2055 33.3899 71.0713 33.3139 70.933C33.2632 70.8428 33.189 70.7647 33.1559 70.6705C33.1364 70.6164 33.1559 70.5262 33.1929 70.4781C33.2476 70.404 33.3334 70.42 33.4016 70.4741C33.4621 70.5202 33.5148 70.5763 33.5928 70.6484L33.5967 70.6505ZM23.1285 68.5825C23.1032 68.6546 23.0798 68.7127 23.0622 68.7709C22.9822 69.0273 23.029 69.1496 23.2553 69.2798C23.5147 69.4301 23.8112 69.35 23.9614 69.0835C24.1038 68.829 24.1077 68.5665 23.9809 68.302C23.9165 68.1657 23.8463 68.0314 23.7956 67.8892C23.7683 67.815 23.7741 67.7309 23.8619 67.6808C23.9477 67.6327 24.014 67.6687 24.0725 67.7289C24.1252 67.783 24.1681 67.8491 24.2305 67.9292C24.2715 67.803 24.3046 67.6988 24.3417 67.5966C24.3749 67.5004 24.3495 67.4283 24.2773 67.3622C24.1213 67.2179 23.9438 67.1498 23.739 67.2099C23.5401 67.268 23.4328 67.4243 23.3996 67.6287C23.384 67.7289 23.3723 67.8391 23.3957 67.9373C23.4367 68.0976 23.505 68.2519 23.5635 68.4082C23.5947 68.4903 23.6454 68.5685 23.6512 68.6526C23.6571 68.7208 23.6337 68.827 23.5849 68.857C23.5362 68.8891 23.4269 68.8791 23.3743 68.843C23.2865 68.7829 23.2241 68.6867 23.1305 68.5805L23.1285 68.5825ZM61.0203 65.0137C60.519 65.0177 60.1952 65.3944 60.2343 65.9214C60.2616 66.2801 60.3844 66.6067 60.6029 66.8893C60.9618 67.3561 61.5352 67.2399 61.7693 66.8432C61.7459 66.783 61.7205 66.7169 61.6932 66.6508C61.6659 66.5887 61.6386 66.5266 61.6015 66.4464C61.5586 66.4965 61.5294 66.5326 61.4982 66.5666C61.2914 66.7891 61.0515 66.7851 60.8974 66.5266C60.794 66.3522 60.716 66.1538 60.6673 65.9575C60.597 65.6849 60.794 65.4004 61.0457 65.4144C61.0808 65.4144 61.1159 65.4024 61.1744 65.3904C61.1198 65.2561 61.073 65.1399 61.0222 65.0157L61.0203 65.0137ZM50.794 71.0392C50.7335 71.0853 50.7043 71.1093 50.6731 71.1294C50.4351 71.2857 50.2127 71.2256 50.0977 70.963C50.0001 70.7426 49.9572 70.5062 49.9826 70.2617C50.0099 70.0012 50.1757 69.8649 50.4253 69.885C50.4683 69.889 50.5112 69.889 50.5716 69.893C50.558 69.7948 50.5482 69.7167 50.5326 69.6405C50.5209 69.5864 50.4995 69.5363 50.4858 69.4862C50.045 69.394 49.729 69.5624 49.61 69.9892C49.4735 70.4821 49.5535 70.959 49.8402 71.3819C50.0372 71.6704 50.359 71.7486 50.6711 71.6203C50.872 71.5382 50.8896 71.5041 50.8447 71.2777C50.831 71.2095 50.8154 71.1394 50.794 71.0352V71.0392ZM25.3052 68.346C25.3423 68.2138 25.3657 68.1056 25.4028 68.0014C25.434 67.9112 25.4106 67.8491 25.3462 67.789C25.1902 67.6487 25.0166 67.5766 24.8098 67.6367C24.6089 67.6948 24.4997 67.8491 24.4665 68.0495C24.447 68.1637 24.4451 68.2919 24.4743 68.4021C24.5133 68.5544 24.5875 68.6967 24.6479 68.843C24.6811 68.9231 24.7338 68.9993 24.7494 69.0835C24.7611 69.1456 24.7494 69.2458 24.7084 69.2758C24.6577 69.3139 24.5641 69.3179 24.4958 69.3019C24.4412 69.2899 24.3944 69.2317 24.3515 69.1877C24.3105 69.1436 24.2773 69.0895 24.2247 69.0173C24.1896 69.1335 24.1701 69.2257 24.135 69.3119C24.0862 69.4361 24.1272 69.5243 24.213 69.6105C24.5036 69.911 24.9347 69.8389 25.0907 69.4482C25.1414 69.3199 25.1687 69.1636 25.1492 69.0293C25.1258 68.869 25.0419 68.7188 24.9815 68.5645C24.9444 68.4683 24.8878 68.3781 24.8664 68.2799C24.8547 68.2318 24.8859 68.1396 24.9229 68.1196C24.9737 68.0936 25.0614 68.0976 25.1102 68.1276C25.1785 68.1717 25.2253 68.2499 25.3072 68.342L25.3052 68.346ZM46.737 70.2397C46.8911 70.5142 47.0198 70.7687 47.172 71.0091C47.3202 71.2436 47.3963 71.4941 47.4138 71.7706C47.4236 71.9409 47.4606 72.1092 47.4879 72.2956C47.6342 72.2695 47.7512 72.2495 47.878 72.2255C47.8507 72.0131 47.8312 71.8307 47.8059 71.6504C47.7747 71.4279 47.7669 71.2095 47.8215 70.9871C47.8956 70.6805 47.9482 70.3699 48.0126 70.0493C47.9599 70.0453 47.9307 70.0393 47.9014 70.0413C47.6479 70.0593 47.6362 70.0713 47.5855 70.3218C47.5582 70.4581 47.5269 70.5923 47.486 70.7827C47.3612 70.5503 47.2636 70.3639 47.1603 70.1695C47.0198 70.1936 46.893 70.2156 46.7409 70.2417L46.737 70.2397ZM21.1722 68.346C21.2756 68.0595 21.3692 67.801 21.4667 67.5325C21.5974 67.5826 21.7125 67.6247 21.8412 67.6748C21.8841 67.5505 21.9212 67.4403 21.9602 67.3261C21.8334 67.26 21.7242 67.2019 21.6013 67.1377C21.6481 67.0055 21.691 66.8812 21.7378 66.745C21.89 66.8091 22.0245 66.8632 22.1728 66.9253C22.2196 66.7931 22.2586 66.6768 22.3054 66.5446C22.0324 66.4163 21.7807 66.2981 21.4999 66.1679C21.2658 66.8452 21.0376 67.5024 20.8036 68.1757C20.9303 68.2358 21.0337 68.2839 21.1722 68.348V68.346ZM40.1873 72.8787C40.199 72.3076 40.2088 71.7445 40.2205 71.1715C40.3492 71.1594 40.4604 71.1494 40.5774 71.1394V70.7707C40.3356 70.7106 39.6431 70.7005 39.4715 70.7486V71.1214C39.5944 71.1354 39.6997 71.1474 39.7992 71.1594V72.8767H40.1873V72.8787ZM46.5088 72.4559C46.4366 71.8608 46.3684 71.3077 46.3001 70.7486C46.421 70.7146 46.5303 70.6845 46.6512 70.6525C46.6336 70.5222 46.618 70.408 46.5966 70.2617C46.2182 70.3238 45.8573 70.3859 45.477 70.4481C45.4985 70.5984 45.516 70.7206 45.5355 70.8508C45.6681 70.8388 45.7774 70.8288 45.8944 70.8188C45.9685 71.3979 46.0407 71.9489 46.1129 72.52C46.2533 72.498 46.3703 72.478 46.5068 72.4559H46.5088ZM57.6382 69.0494C57.4509 68.4963 57.2715 67.9633 57.0921 67.4323C57.213 67.3682 57.3066 67.3181 57.4178 67.26C57.3729 67.1357 57.3339 67.0195 57.2851 66.8832C56.9204 67.0516 56.583 67.2079 56.2338 67.3682C56.2826 67.5064 56.3236 67.6227 56.3665 67.7489C56.4913 67.7008 56.5908 67.6607 56.7117 67.6146C56.897 68.1477 57.0784 68.6727 57.2676 69.2157C57.3944 69.1596 57.4977 69.1115 57.6382 69.0494ZM31.4005 69.6325C31.26 69.6024 31.143 69.5764 31.0084 69.5483C30.8914 70.2657 30.7802 70.957 30.6632 71.6704C30.948 71.7325 31.2171 71.7926 31.5194 71.8588C31.5389 71.7105 31.5565 71.5822 31.5741 71.45C31.4141 71.4079 31.2815 71.3738 31.1313 71.3338C31.223 70.7607 31.3107 70.2036 31.4005 69.6305V69.6325ZM37.4684 72.7625C37.5093 72.0351 37.5483 71.3358 37.5893 70.6144C37.4528 70.6004 37.3338 70.5883 37.1875 70.5743C37.1465 71.3017 37.1056 72.0091 37.0666 72.7244C37.1504 72.7344 37.2109 72.7425 37.2714 72.7485C37.324 72.7545 37.3767 72.7565 37.4684 72.7645V72.7625ZM25.6583 70.1595C25.8436 69.4582 26.0406 68.7849 26.2044 68.0916C26.064 68.0475 25.9606 67.9673 25.8202 67.9874C25.6388 68.6606 25.4613 69.3299 25.276 70.0172C25.4028 70.0653 25.5178 70.1074 25.6583 70.1595ZM45.4575 72.5922C45.3853 71.8628 45.3463 71.1594 45.2566 70.4461C45.1181 70.4621 45.005 70.4761 44.8665 70.4921C44.9289 71.2175 44.9913 71.9189 45.0537 72.6443C45.1942 72.6262 45.3073 72.6122 45.4555 72.5922H45.4575ZM32.1884 72.0071C32.3055 71.2877 32.4167 70.5984 32.5337 69.883C32.3952 69.8529 32.2743 69.8269 32.1377 69.7968C32.0207 70.5202 31.9095 71.2095 31.7945 71.9149C31.9271 71.9469 32.0383 71.973 32.1884 72.0071ZM36.4541 70.2377C36.4346 70.2337 36.4171 70.2317 36.3976 70.2276C36.302 71.3638 36.2084 72.5 36.1128 73.6382C36.1303 73.6382 36.1499 73.6422 36.1674 73.6422C36.263 72.508 36.3586 71.3718 36.4541 70.2377ZM49.14 72.5882C49.1848 72.3457 48.7128 69.3219 48.6173 69.1416C48.7947 70.3178 48.9683 71.452 49.14 72.5882Z" fill="white"/>
<path d="M73.0002 63.7032C72.6354 63.6792 72.2687 63.6551 71.904 63.6311C71.1726 63.583 70.4411 63.5469 69.7136 63.6852C69.0758 63.8054 68.4887 64.0499 67.9406 64.4005C67.4686 64.7031 67.0317 65.0478 66.6572 65.4746C66.4271 65.7351 66.1891 65.9836 65.9122 66.2841C65.5279 64.0278 65.1768 61.8236 64.7984 59.5873C64.699 59.6214 64.6092 59.6394 64.5332 59.6835C64.2699 59.8378 64.0085 59.9961 63.7491 60.1604C63.4507 60.3488 63.16 60.5512 62.8577 60.7335C62.7134 60.8217 62.5515 60.8798 62.376 60.962C62.3604 60.8838 62.3447 60.8417 62.3447 60.7976C62.3408 60.1885 62.3389 59.5793 62.335 58.9721C62.333 58.7056 62.4072 58.4632 62.5593 58.2528C62.7426 58.0043 62.926 57.7538 63.1366 57.5294C64.8745 55.6899 66.9537 54.4896 69.4132 54.0106C70.4372 53.8103 71.4671 53.7341 72.5067 53.8543C72.5457 53.8584 72.5828 53.8644 72.6218 53.8724C72.6354 53.8764 72.6491 53.8864 72.6861 53.9085C72.6939 53.9946 72.7076 54.0948 72.7095 54.197C72.7642 55.9343 72.8188 57.6717 72.8695 59.409C72.9007 60.5051 72.926 61.6032 72.9573 62.6993C72.9612 62.8576 72.9846 63.0159 73.0002 63.1742V63.7032Z" fill="white"/>
<path d="M15.3539 16.5485C15.4202 16.4723 15.4865 16.3942 15.5509 16.318C15.9644 15.8251 16.4032 15.3602 16.9201 14.9795C17.5326 14.5266 18.2016 14.222 18.9623 14.1619C19.4674 14.1238 19.955 14.228 20.4388 14.3523C20.6338 14.4024 20.8269 14.4625 21.059 14.5286C20.9595 14.6789 20.8932 14.8151 20.7937 14.9193C20.4934 15.244 20.1989 15.5786 19.8653 15.8652C19.4596 16.2138 19.0305 16.5384 18.5878 16.833C17.714 17.4141 16.7329 17.5985 15.7069 17.5804C15.4729 17.5764 15.2388 17.5604 15.0067 17.5524C14.8994 17.5484 14.7902 17.5524 14.6693 17.5524C14.2148 18.7447 13.6063 19.8708 13.3898 21.1593C13.4249 21.1072 13.4619 21.0571 13.4931 21.003C13.7604 20.5401 14.0763 20.1133 14.4294 19.7145C15.1452 18.903 16.0561 18.5222 17.1015 18.4741C17.4897 18.4561 17.8797 18.5002 18.2679 18.5202C18.3264 18.5222 18.3849 18.5463 18.4629 18.5643C18.42 18.6645 18.3947 18.7467 18.3518 18.8208C17.673 20.0351 16.8206 21.0791 15.6055 21.7664C15.0516 22.079 14.4586 22.2594 13.8364 22.3556C13.6979 22.3776 13.5614 22.4117 13.4249 22.4437C13.1382 22.5159 12.9314 22.6942 12.8358 22.9768C12.752 23.2252 12.6778 23.4817 12.6427 23.7402C12.5803 24.1911 12.5511 24.648 12.5082 25.1008C12.5023 25.1609 12.5082 25.2211 12.5082 25.3393C12.5998 25.2331 12.6583 25.173 12.7071 25.1068C12.869 24.8804 13.0328 24.656 13.1869 24.4255C13.8052 23.4958 14.6868 23.0309 15.7498 22.8946C16.058 22.8545 16.3681 22.8465 16.7173 22.8225C16.688 22.9427 16.6705 23.0249 16.6471 23.105C16.3837 24.0007 15.9117 24.7762 15.3812 25.5256C14.8585 26.259 14.1973 26.7901 13.3703 27.1087C13.1089 27.2109 12.8534 27.3311 12.5979 27.4513C12.4711 27.5114 12.3521 27.5856 12.2292 27.6557V29.9581C12.2917 29.8579 12.3287 29.8038 12.3599 29.7457C12.5842 29.3129 12.8397 28.9021 13.1557 28.5334C13.7662 27.822 14.5249 27.4093 15.4456 27.3231C15.5372 27.3151 15.6289 27.3231 15.7303 27.3231C15.7752 27.4954 15.7206 27.6477 15.6933 27.802C15.4397 29.1506 14.9053 30.3609 14.012 31.3929C13.5439 31.9319 12.9977 32.3647 12.3307 32.6152C12.3014 32.6252 12.276 32.6453 12.2312 32.6693C12.3112 33.4268 12.3911 34.1882 12.4769 35.0018C12.5316 34.9136 12.5667 34.8675 12.5901 34.8154C12.7383 34.4968 12.8865 34.1802 13.0289 33.8596C13.4171 32.9839 14.0568 32.3848 14.9228 32.0361C15.1159 31.958 15.3129 31.8858 15.5353 31.7997C15.5587 31.956 15.586 32.0782 15.5957 32.2024C15.6465 32.8316 15.5626 33.4488 15.4027 34.056C15.19 34.8655 14.8663 35.627 14.4099 36.3223C14.0217 36.9134 13.5614 37.4304 12.9295 37.743C12.8963 38.4584 13.3254 40.1136 13.6453 40.4683C13.6589 40.2739 13.6784 40.1016 13.6843 39.9272C13.7311 38.5766 14.3338 37.5286 15.3422 36.703C15.5606 36.5247 15.8005 36.3764 16.0717 36.2903C16.2199 36.5007 16.2648 36.7331 16.2882 36.9595C16.4149 38.1558 16.2999 39.3261 15.9039 40.4602C15.7089 41.0173 15.3851 41.4962 15.0028 41.9371C14.8019 42.1695 14.6225 42.424 14.4372 42.6705C14.3689 42.7586 14.3611 42.8548 14.4001 42.963C14.7141 43.8347 15.075 44.6863 15.5548 45.4778C15.6075 45.564 15.6679 45.6422 15.7245 45.7263L15.7732 45.7063C15.7245 45.3877 15.6855 45.0671 15.627 44.7504C15.3558 43.2596 15.8552 42.0292 16.8304 40.9592C16.9845 40.7889 17.1678 40.6506 17.4097 40.5544C17.4487 40.6266 17.4936 40.6987 17.5287 40.7748C17.7471 41.2417 17.8622 41.7407 17.9227 42.2497C18.0533 43.3518 17.9773 44.4399 17.6574 45.5039C17.5092 45.9968 17.2732 46.4477 17.0157 46.8885C16.9396 47.0188 16.8636 47.149 16.7894 47.2813C16.6939 47.4496 16.6997 47.6159 16.8011 47.7802C16.8558 47.8684 16.9065 47.9586 16.9689 48.0407C17.4975 48.7341 18.026 49.4274 18.5585 50.1187C18.6248 50.2049 18.7048 50.283 18.777 50.3632L18.8238 50.3391C18.7984 50.273 18.7731 50.2069 18.7458 50.1408C18.541 49.6558 18.3362 49.1729 18.2094 48.6579C17.8817 47.3254 18.1957 46.1231 18.9174 45.0069C19.0286 44.8346 19.169 44.6823 19.3699 44.5581C19.4323 44.6402 19.5064 44.7124 19.5513 44.7985C20.0155 45.7023 20.3646 46.6501 20.5363 47.662C20.6533 48.3473 20.585 49.0206 20.3842 49.6779C20.2184 50.2189 20.0526 50.762 19.8614 51.295C19.7795 51.5274 19.8224 51.6817 19.9941 51.84C20.3939 52.2087 20.782 52.5915 21.178 52.9662C21.5291 53.2968 21.8821 53.6234 22.2371 53.9501C22.3463 54.0523 22.4594 54.1504 22.5784 54.2426C22.6077 54.2667 22.6623 54.2566 22.7286 54.2647C22.7072 54.2045 22.7072 54.1785 22.6935 54.1645C21.9465 53.4411 21.5154 52.5414 21.3087 51.5234C21.1429 50.7099 21.1585 49.9003 21.4491 49.1108C21.5954 48.714 21.7982 48.3894 22.0381 48.173C22.0928 48.2211 22.1571 48.2632 22.2039 48.3213C22.3541 48.5056 22.5121 48.684 22.6428 48.8824C23.1285 49.6138 23.499 50.4073 23.7663 51.2489C24.0432 52.1226 24.0393 53.0143 23.9008 53.91C23.8443 54.2807 23.7702 54.6494 23.7038 55.0201C24.0491 55.469 26.3584 56.9518 27.0723 57.1662C26.9904 57.08 26.9358 57.0199 26.8792 56.9638C26.6393 56.7334 26.3935 56.511 26.1614 56.2765C25.4125 55.5211 25.0243 54.5913 24.9073 53.5293C24.8468 52.9822 24.8605 52.4412 25.0068 51.9102C25.0711 51.6797 25.155 51.4573 25.3247 51.2609C25.4125 51.321 25.5041 51.3691 25.5763 51.4373C26.573 52.357 27.4136 53.397 27.9325 54.6835C28.147 55.2165 28.225 55.7776 28.2231 56.3507C28.2231 56.7755 28.2289 57.1983 28.3011 57.6191C28.3304 57.7934 28.4103 57.8816 28.5566 57.9517C29.2627 58.2924 29.9922 58.5709 30.7353 58.8114C30.9947 58.8955 31.2561 58.9677 31.5642 59.0578C31.4492 58.8795 31.3224 58.7953 31.2015 58.7052C30.7119 58.3405 30.273 57.9257 29.9063 57.4307C29.3817 56.7214 29.0871 55.9258 29.0384 55.0361C29.0169 54.6434 29.0696 54.2566 29.1437 53.8719C29.2802 53.8098 29.4051 53.8298 29.5182 53.8799C29.682 53.9521 29.8498 54.0282 29.9902 54.1364C30.6378 54.6394 31.2795 55.1463 31.8451 55.7475C32.6682 56.6252 33.1695 57.6752 33.4191 58.8615C33.4445 58.9797 33.4679 59.0959 33.4894 59.2141C33.5108 59.3223 33.5303 59.4326 33.5537 59.5668C33.9594 59.649 34.3612 59.7472 34.7669 59.8093C35.4437 59.9115 36.1244 59.9996 36.8052 60.0778C37.0607 60.1078 37.322 60.1219 37.5756 60.0958C37.7706 60.0758 37.9774 60.0137 38.149 59.9135C38.4201 59.7592 38.6718 59.5668 38.9214 59.3744C39.2198 59.144 39.5027 58.8895 39.8011 58.6571C39.9474 58.5428 40.1132 58.4527 40.275 58.3465C40.4623 58.4988 40.63 58.641 40.8056 58.7733C41.1898 59.0618 41.576 59.3464 41.9622 59.6289C42.0246 59.675 42.0968 59.7111 42.1611 59.7532C42.5981 60.0357 43.0681 60.1459 43.5869 60.0958C44.4939 60.0077 45.4028 59.9255 46.3 59.7572C46.5302 59.7131 46.7545 59.645 46.9827 59.5929C47.1387 59.5568 47.2051 59.4726 47.2304 59.3003C47.3943 58.1962 47.7707 57.1762 48.4553 56.3006C49.2706 55.2586 50.2653 54.429 51.4025 53.7797C51.4415 53.7577 51.4844 53.7437 51.5371 53.7196C51.656 53.9921 51.6931 54.2727 51.697 54.5492C51.7223 56.024 51.2659 57.2864 50.1132 58.2262C49.8577 58.4346 49.5963 58.639 49.3389 58.8454C49.2804 58.8935 49.2277 58.9476 49.1906 59.0318C49.3018 59.0037 49.4149 58.9777 49.5261 58.9456C50.2985 58.7212 51.0592 58.4627 51.7945 58.1301C51.9662 58.0519 52.128 57.9577 52.2958 57.8736C52.3894 57.8255 52.4265 57.7533 52.4284 57.6431C52.4362 57.2584 52.4538 56.8737 52.4655 56.4909C52.4947 55.6213 52.6859 54.7977 53.1033 54.0322C53.4349 53.421 53.825 52.85 54.2892 52.339C54.5915 52.0063 54.925 51.7038 55.2488 51.3932C55.3151 51.329 55.399 51.287 55.5043 51.2128C55.5628 51.4453 55.6135 51.6436 55.6603 51.844C55.7949 52.4151 55.8846 52.9882 55.8378 53.5793C55.7871 54.2065 55.596 54.7857 55.2898 55.3247C54.9133 55.99 54.4335 56.5631 53.8367 57.032C53.7957 57.064 53.7567 57.1021 53.7333 57.1702C53.8367 57.1241 53.9459 57.0881 54.0454 57.03C54.4725 56.7815 54.9016 56.539 55.319 56.2745C55.8495 55.9379 56.3664 55.5812 56.895 55.2385C56.9964 55.1744 57.0393 55.1063 57.0179 54.986C56.9633 54.6795 56.9281 54.3689 56.8638 54.0643C56.6141 52.888 56.7877 51.7559 57.1993 50.6497C57.5133 49.8061 57.9404 49.0266 58.5295 48.3493C58.5919 48.2772 58.6485 48.2031 58.7245 48.1069C58.7811 48.197 58.8162 48.2451 58.8435 48.2992C59.1185 48.8042 59.3584 49.3232 59.4755 49.8943C59.6569 50.788 59.5379 51.6456 59.1673 52.4712C58.9313 52.9982 58.6056 53.4671 58.2603 53.924C58.1725 54.0402 58.0906 54.1645 57.997 54.2967C58.0419 54.3007 58.0614 54.3087 58.0672 54.3027C58.6504 53.7958 59.2434 53.3008 59.8129 52.7778C60.1601 52.4592 60.4682 52.0945 60.7998 51.7559C60.9227 51.6316 60.9305 51.4974 60.8759 51.3411C60.7745 51.0465 60.7004 50.7419 60.5794 50.4574C60.0255 49.1529 60.0977 47.8364 60.4858 46.5118C60.6418 45.9768 61.1139 44.9027 61.3401 44.5441C61.4084 44.5941 61.4883 44.6322 61.541 44.6943C61.6892 44.8687 61.8492 45.037 61.9662 45.2334C62.7074 46.4717 62.8849 47.7843 62.409 49.1689C62.2744 49.5617 62.1301 49.9504 61.8862 50.2911C61.8355 50.3612 61.816 50.4574 61.8082 50.5556C62.6508 49.5897 63.3218 48.4976 64.0864 47.4516C63.9771 47.2352 63.8738 47.0208 63.7606 46.8124C63.6378 46.59 63.5032 46.3736 63.3784 46.1511C62.9824 45.4518 62.7932 44.6903 62.7581 43.8848C62.7093 42.7807 62.9063 41.7186 63.2633 40.6807C63.275 40.6446 63.2906 40.6085 63.312 40.5544C63.4642 40.5985 63.5793 40.6907 63.6885 40.7849C64.3068 41.3199 64.73 41.9912 64.9953 42.7707C65.2664 43.5602 65.2372 44.3597 65.0714 45.1632C65.0304 45.3656 64.9875 45.568 64.9719 45.7904C65.005 45.7584 65.046 45.7303 65.0694 45.6902C65.2215 45.4378 65.3795 45.1893 65.5141 44.9288C65.8301 44.3216 66.0856 43.6844 66.3158 43.0372C66.3762 42.8668 66.3665 42.7566 66.2299 42.6184C65.4263 41.8068 64.8763 40.841 64.6579 39.7008C64.572 39.2539 64.5077 38.7991 64.496 38.3442C64.4784 37.737 64.5194 37.1279 64.5389 36.5207C64.5408 36.4365 64.5642 36.3524 64.5837 36.2321C64.7768 36.3343 64.9504 36.4065 65.1045 36.5107C65.7326 36.9375 66.2397 37.4825 66.6161 38.1558C66.8443 38.5646 66.9633 39.0095 67.0062 39.4784C67.0433 39.8691 67.0784 40.2578 67.1447 40.6566C67.1642 40.6125 67.1896 40.5684 67.2013 40.5204C67.4022 39.7068 67.5972 38.8892 67.804 38.0777C67.8449 37.9174 67.8157 37.8152 67.7025 37.6989C67.3261 37.3142 66.9594 36.9215 66.5927 36.5267C65.8554 35.7372 65.4322 34.7854 65.2918 33.7093C65.2176 33.1382 65.1981 32.5611 65.1552 31.986C65.1513 31.9399 65.163 31.8938 65.1708 31.8217C65.9608 32.002 66.6122 32.3928 67.1525 32.9879C67.6889 33.5791 68.0205 34.2884 68.2409 35.0599C68.2565 35.0599 68.2721 35.0559 68.2877 35.0539C68.3521 34.2684 68.4164 33.4809 68.4808 32.6874C68.4125 32.6453 68.356 32.6052 68.2955 32.5711C66.5108 31.5913 65.4771 30.0523 65.0948 28.0284C65.0519 27.802 65.0187 27.5716 64.9816 27.3451C65.4556 27.2289 66.5576 27.6156 67.1545 28.0986C67.7845 28.6075 68.1726 29.2969 68.5529 30.0243C68.5646 29.9441 68.5822 29.866 68.5861 29.7858C68.6193 29.1366 68.5822 28.4893 68.5022 27.8441C68.4788 27.6597 68.4106 27.5595 68.2175 27.5034C67.4899 27.291 66.8346 26.9263 66.228 26.4634C65.912 26.223 65.6428 25.9384 65.4185 25.6038C65.0265 25.0147 64.6462 24.4195 64.3477 23.7743C64.2483 23.5579 64.1741 23.3294 64.0961 23.103C64.0708 23.0309 64.0688 22.9507 64.0552 22.8605C65.1416 22.7423 66.1071 22.9527 66.9204 23.7142C67.2403 24.0127 67.5016 24.3594 67.7513 24.7201C67.9034 24.9405 68.0595 25.1569 68.2155 25.3754C68.2331 25.3693 68.2506 25.3653 68.2682 25.3593C68.2545 25.2251 68.2448 25.0888 68.2292 24.9546C68.1356 24.2232 68.0127 23.4978 67.8118 22.7904C67.7279 22.4918 67.7513 22.5259 67.4743 22.4958C66.8911 22.4337 66.3197 22.3175 65.7677 22.1071C65.1981 21.8907 64.6871 21.5781 64.2424 21.1493C63.6826 20.6122 63.158 20.0432 62.7249 19.3899C62.5631 19.1474 62.4285 18.8869 62.2724 18.6184C62.5084 18.4882 62.7386 18.4561 62.9649 18.422C63.7567 18.3058 64.4999 18.4681 65.202 18.8489C66.0915 19.3298 66.7507 20.0492 67.2305 20.9489C67.2637 21.011 67.2968 21.0751 67.332 21.1392C67.3398 21.1513 67.3554 21.1593 67.3963 21.1954C67.1096 19.8848 66.5771 18.7046 66.0719 17.5163C65.8008 17.5464 65.5473 17.5844 65.2918 17.6005C64.061 17.6826 62.9219 17.3981 61.9057 16.6647C61.4532 16.3381 61.0066 15.9994 60.5853 15.6327C60.32 15.4023 60.1016 15.1137 59.8675 14.8452C59.8012 14.7711 59.7583 14.6749 59.6939 14.5707C60.0411 14.4003 60.3824 14.3042 60.7335 14.236C62.0579 13.9755 63.2009 14.3763 64.1937 15.27C64.5681 15.6067 64.8997 15.9934 65.2489 16.3581C65.3035 16.4142 65.3503 16.4763 65.442 16.5825C65.4205 16.4803 65.4166 16.4302 65.399 16.3882C65.3386 16.2399 65.2781 16.0916 65.2079 15.9513C64.6793 14.8973 64.0084 13.9475 63.2321 13.0738C63.117 12.9436 63.0117 12.9195 62.8459 12.9696C61.4162 13.3964 60.0274 13.2802 58.6875 12.6069C58.0204 12.2723 57.3709 11.9076 56.7799 11.4467C56.6083 11.3124 56.4522 11.1541 56.2689 10.9898C56.3898 10.8876 56.4815 10.8015 56.581 10.7293C56.9516 10.4608 57.3709 10.3145 57.8156 10.2524C58.8942 10.1021 59.9085 10.3205 60.8622 10.8455C61.0319 10.9397 61.1782 11.074 61.3401 11.1862C61.3772 11.2122 61.424 11.2223 61.4669 11.2383L61.4922 11.1982C61.463 11.1662 61.4376 11.1301 61.4064 11.102C61.1022 10.8275 60.7979 10.551 60.4897 10.2825C60.1874 10.02 59.8441 9.85365 59.4579 9.74343C58.98 9.60717 58.5041 9.44086 58.0477 9.24047C56.9301 8.74953 56.1402 7.90592 55.6506 6.76373C55.4302 6.24874 55.2722 5.71372 55.1454 5.16868C55.1376 5.13261 55.1396 5.09253 55.1337 5.0244C55.3229 5.0244 55.5004 5.01238 55.674 5.0244C57.1017 5.1306 58.2077 5.83996 59.0912 6.96011C59.5671 7.56526 59.9182 8.24256 60.125 8.98999C60.2478 9.43284 60.4761 9.78552 60.8427 10.05C61.0085 10.1682 61.1587 10.3065 61.3401 10.4548C61.3323 10.2344 61.3206 10.038 61.2367 9.86166C60.7998 8.93789 60.5424 7.96202 60.3941 6.95009C60.3337 6.52928 60.281 6.10647 60.3688 5.68366C60.4 5.52937 60.4488 5.37307 60.519 5.2328C60.6028 5.06247 60.6867 5.04644 60.8388 5.15265C60.9539 5.2348 61.0651 5.32698 61.1607 5.42918C62.0696 6.41106 62.8361 7.49914 63.394 8.72949C63.8328 9.69735 63.8796 10.7053 63.5773 11.7292C63.5305 11.8895 63.4876 12.0519 63.4388 12.2122C63.3744 12.4286 63.4096 12.629 63.5441 12.8013C63.8894 13.2441 64.2424 13.683 64.5935 14.1218C64.6071 14.1378 64.6306 14.1439 64.6754 14.1719C64.6325 13.8673 64.5935 13.5848 64.5525 13.3043C64.377 12.0719 64.5486 10.8956 65.0694 9.77149C65.085 9.73742 65.1065 9.70536 65.1357 9.65527C65.1923 9.70536 65.245 9.73943 65.282 9.78551C65.4263 9.96386 65.5804 10.1362 65.7053 10.3286C66.3645 11.3265 66.8424 12.4065 67.0706 13.5948C67.2442 14.4985 67.1818 15.3802 66.7663 16.2158C66.6805 16.3862 66.6103 16.5665 66.5206 16.7328C66.4211 16.9192 66.3977 17.1115 66.4464 17.3119C66.6005 17.9471 66.8716 18.5303 67.1954 19.0893C67.1974 19.0933 67.2091 19.0913 67.2383 19.0973C67.2559 18.7968 67.2734 18.4982 67.291 18.1976C67.3417 17.2378 67.6187 16.3441 68.0419 15.4944C68.1687 15.238 68.3364 15.0075 68.6017 14.8372C68.6817 14.9474 68.7616 15.0436 68.828 15.1498C69.1732 15.6928 69.378 16.296 69.5067 16.9272C69.7291 18.0173 69.733 19.1054 69.4463 20.1854C69.2785 20.8226 69.0016 21.3977 68.551 21.8747C68.4476 21.9829 68.3599 22.1071 68.2643 22.2233C68.1843 22.3215 68.1531 22.4337 68.1785 22.56C68.3442 23.3735 68.51 24.1891 68.6778 25.0026C68.6836 25.0327 68.6973 25.0608 68.7402 25.0908C68.787 24.8083 68.8397 24.5277 68.8787 24.2432C68.9723 23.5499 69.1303 22.8746 69.4443 22.2474C69.6979 21.7404 69.9846 21.2555 70.361 20.8327C70.5249 20.6503 70.6985 20.48 70.954 20.3718C71.0047 20.476 71.071 20.5682 71.0964 20.6704C71.1861 21.035 71.2914 21.3977 71.3363 21.7685C71.4377 22.598 71.4318 23.4296 71.3187 24.2612C71.1568 25.4615 70.5756 26.4033 69.6472 27.1287C69.419 27.3071 69.1712 27.4593 68.9196 27.6297C68.9489 28.8119 68.9801 30.0022 69.0113 31.1925C69.0269 31.1965 69.0425 31.1985 69.0581 31.2025C69.0893 31.1083 69.1264 31.0162 69.1498 30.92C69.2239 30.6254 69.2902 30.3288 69.3624 30.0343C69.5984 29.0584 70.0899 28.2188 70.6965 27.4433C70.9852 27.0746 71.2992 26.7279 71.6659 26.4394C71.7771 26.3532 71.8961 26.2731 72.0228 26.213C72.1711 26.1428 72.2432 26.1709 72.2881 26.3332C72.3486 26.5476 72.4051 26.768 72.4188 26.9884C72.4909 28.1687 72.3018 29.3029 71.7927 30.3709C71.2231 31.5672 70.3357 32.3948 69.0815 32.7775C68.945 32.8196 68.8962 32.8877 68.8826 33.024C68.787 34.0039 68.6875 34.9838 68.5881 35.9636C68.5783 36.0658 68.5647 36.17 68.5881 36.2862C68.6212 36.2121 68.6544 36.14 68.6856 36.0658C69.0152 35.2302 69.4346 34.4427 70.0041 33.7534C70.597 33.034 71.3265 32.493 72.1711 32.1183C72.292 32.0642 72.4207 32.0321 72.5729 31.98C72.5826 32.0862 72.6041 32.1704 72.5982 32.2545C72.5085 33.7474 72.1184 35.138 71.2446 36.3544C70.8057 36.9655 70.2323 37.3904 69.5184 37.6068C69.1459 37.721 68.7773 37.8512 68.4047 37.9655C68.2935 37.9995 68.2428 38.0596 68.2136 38.1759C68.0068 39.0055 67.7923 39.833 67.5816 40.6606C67.5758 40.6827 67.5777 40.7067 67.5738 40.7869C67.6499 40.6847 67.6986 40.6205 67.7455 40.5544C68.2175 39.8891 68.7597 39.296 69.4073 38.8091C70.1114 38.2801 70.8857 37.9274 71.7576 37.8092C71.8024 37.8031 71.8473 37.8011 71.9253 37.7951C71.9019 37.9514 71.8922 38.0937 71.8609 38.228C71.5703 39.5204 70.9793 40.6506 70.0997 41.6205C69.5126 42.2657 68.7773 42.6224 67.9425 42.7767C67.6128 42.8368 67.2793 42.8789 66.9477 42.9189C66.8541 42.931 66.7917 42.951 66.7488 43.0472C66.4484 43.7505 66.1422 44.4519 65.8379 45.1532C65.832 45.1652 65.8379 45.1833 65.8418 45.2214C65.8906 45.1893 65.9335 45.1632 65.9705 45.1332C66.2065 44.9368 66.4386 44.7324 66.6785 44.5421C67.685 43.7465 68.8377 43.3898 70.0977 43.3698C70.1445 43.3698 70.1913 43.3718 70.2382 43.3758C70.2518 43.3758 70.2655 43.3878 70.3064 43.4099C70.2908 43.492 70.2869 43.5882 70.2538 43.6724C70.166 43.8948 70.0821 44.1212 69.967 44.3276C69.5418 45.0991 69.0191 45.7985 68.4008 46.4156C67.8683 46.9467 67.2559 47.3514 66.5147 47.5157C66.1168 47.6039 65.7111 47.626 65.3054 47.6119C65.0343 47.6019 64.7632 47.5839 64.4823 47.5678C64.1176 48.169 63.6807 48.7241 63.4096 49.3893C63.4291 49.3933 63.4447 49.4014 63.4525 49.3953C64.1176 48.8884 64.8939 48.69 65.6916 48.5577C66.1617 48.4796 66.6376 48.4616 67.1135 48.5076C67.3905 48.5337 67.566 48.5898 67.765 48.7221C67.7377 48.7822 67.7142 48.8483 67.6791 48.9064C66.9126 50.1668 65.8906 51.1367 64.574 51.7679C63.9596 52.0624 63.3159 52.1145 62.6547 51.9943C62.2627 51.9242 61.8706 51.8621 61.4805 51.7859C61.3323 51.7559 61.2348 51.7979 61.1334 51.9081C60.7647 52.3009 60.3844 52.6796 60.0138 53.0684C59.9455 53.1385 59.9046 53.2367 59.8285 53.3609C59.9319 53.3489 59.9904 53.3469 60.047 53.3349C60.6048 53.2227 61.1607 53.0964 61.7205 53.0022C62.3563 52.896 62.9941 52.888 63.6202 53.0744C63.8913 53.1545 64.1468 53.2647 64.3926 53.4631C64.3341 53.5493 64.2892 53.6435 64.219 53.7116C63.944 53.9821 63.6787 54.2687 63.3784 54.5071C62.6021 55.1243 61.7517 55.6092 60.794 55.8637C59.8909 56.1022 59.0035 56.0521 58.1413 55.6694C57.9619 55.5892 57.7825 55.5151 57.6011 55.4389C57.486 55.3908 57.3748 55.3908 57.2675 55.463C56.696 55.8517 56.1246 56.2404 55.5531 56.6292C55.5433 56.6352 55.5414 56.6552 55.5258 56.6973C55.7579 56.6813 55.9783 56.6633 56.1987 56.6512C56.9711 56.6031 57.7415 56.5911 58.5002 56.7775C58.9976 56.8997 59.4638 57.0941 59.8929 57.3806C59.9709 57.4327 60.0411 57.4928 60.1445 57.571C59.9514 57.7413 59.7914 57.9197 59.5983 58.0459C58.5236 58.7492 57.3534 59.1881 56.0797 59.3043C55.438 59.3624 54.8021 59.3103 54.1897 59.0819C53.7196 58.9076 53.31 58.639 52.9648 58.2663C52.9277 58.2262 52.8907 58.1862 52.838 58.1301C51.9466 58.4747 51.0553 58.8194 50.1639 59.166C50.1659 59.1841 50.1698 59.2021 50.1717 59.2181C50.4545 59.2382 50.7354 59.2602 51.0182 59.2783C51.8998 59.3384 52.7756 59.4446 53.5811 59.8534C53.9985 60.0658 54.3945 60.3243 54.7963 60.5687C54.927 60.6489 55.0186 60.7671 55.0537 60.9615C54.8938 61.0517 54.73 61.1579 54.5564 61.242C53.9966 61.5125 53.4017 61.6748 52.7971 61.7991C52.091 61.9414 51.381 62.0275 50.6593 61.9714C49.7134 61.8993 48.8688 61.5606 48.1491 60.9214C47.878 60.6809 47.6322 60.4124 47.3865 60.1439C47.2909 60.0397 47.2051 59.9976 47.0627 60.0237C46.5029 60.1219 45.9412 60.2161 45.3775 60.2922C44.9386 60.3503 44.4939 60.3844 44.0512 60.4224C43.6435 60.4565 43.2905 60.5988 42.9608 60.8593C42.2567 61.4164 41.5311 61.9434 40.8134 62.4824C40.632 62.6187 40.4506 62.7569 40.2594 62.8992C40.1619 62.8331 40.0683 62.775 39.9825 62.7088C39.4071 62.268 38.8356 61.8231 38.2583 61.3863C37.952 61.1539 37.64 60.9254 37.3201 60.713C37.0412 60.5266 36.7232 60.4585 36.3917 60.4204C35.7968 60.3523 35.2038 60.2541 34.6109 60.166C34.2715 60.1159 33.9321 60.0718 33.5947 60.0117C33.4503 59.9856 33.3704 60.0357 33.2846 60.1519C32.6038 61.0777 31.7047 61.6568 30.6007 61.8973C30.039 62.0195 29.4694 62.0195 28.9019 61.9554C28.0788 61.8652 27.2732 61.6829 26.4969 61.3803C26.2063 61.2681 25.9176 61.1478 25.6368 60.9354C25.7596 60.8092 25.863 60.6789 25.9878 60.5767C26.7407 59.9656 27.5833 59.5548 28.5293 59.3724C29.0988 59.2622 29.6762 59.2602 30.2516 59.2342C30.3452 59.2302 30.4369 59.2342 30.5422 59.2021C30.5032 59.1781 30.4661 59.146 30.4232 59.128C29.7132 58.8434 28.9994 58.5629 28.2894 58.2743C28.1139 58.2022 27.9539 58.2162 27.7979 58.3104C27.677 58.3846 27.5599 58.4627 27.4487 58.5509C26.85 59.0318 26.1575 59.2502 25.4144 59.3163C24.4977 59.3965 23.6141 59.2402 22.7579 58.8955C22.2488 58.6911 21.7514 58.4627 21.2872 58.1661C21.0356 58.0058 20.7937 57.8315 20.5948 57.563C20.7645 57.4427 20.9166 57.3225 21.0824 57.2203C21.6071 56.8977 22.1864 56.7514 22.7891 56.6833C23.5537 56.5951 24.3143 56.6673 25.0789 56.6993C25.1238 56.6993 25.1687 56.6993 25.2545 56.6993C25.1901 56.6412 25.155 56.6031 25.114 56.5751C24.5972 56.2324 24.0764 55.8958 23.5634 55.5451C23.345 55.3968 23.1343 55.3948 22.9022 55.499C22.6662 55.6032 22.4263 55.6974 22.1825 55.7816C21.3847 56.0621 20.5792 56.0841 19.7717 55.8256C18.6989 55.485 17.7432 54.9299 16.9026 54.1645C16.6861 53.9681 16.4891 53.7537 16.3447 53.4571C16.4559 53.393 16.5593 53.3249 16.6705 53.2728C17.0371 53.1024 17.4292 53.0363 17.8232 52.9862C18.6658 52.88 19.4869 52.9762 20.2886 53.2527C20.4349 53.3028 20.5889 53.3389 20.7411 53.371C20.8113 53.385 20.8893 53.373 21.0181 53.373C20.9088 53.2688 20.8406 53.2046 20.7762 53.1405C20.4212 52.7918 20.0662 52.4432 19.7132 52.0945C19.6898 52.0725 19.6664 52.0504 19.6469 52.0264C19.483 51.824 19.2997 51.7659 19.0325 51.83C18.6248 51.9302 18.2055 51.9803 17.7881 52.0284C17.1288 52.1025 16.4969 51.9723 15.9078 51.6617C14.8546 51.1086 13.9925 50.3211 13.2844 49.3533C13.183 49.213 13.105 49.0527 13.0231 48.8984C12.986 48.8303 12.9685 48.7501 12.9295 48.6419C13.1986 48.5958 13.4483 48.5477 13.6999 48.5096C14.5425 48.3854 15.3422 48.5457 16.1146 48.8984C16.4637 49.0567 16.8167 49.203 17.1698 49.3513C17.2458 49.3833 17.3258 49.4014 17.4175 49.4074C17.1113 48.7361 16.5573 48.2431 16.2823 47.5959C16.0327 47.5959 15.8083 47.5919 15.584 47.5959C15.0847 47.6079 14.5854 47.5959 14.0978 47.4676C13.3605 47.2733 12.7325 46.8745 12.2058 46.3235C11.646 45.7403 11.1779 45.0751 10.7917 44.3577C10.6689 44.1293 10.5811 43.8768 10.4855 43.6323C10.4582 43.5602 10.4563 43.48 10.4387 43.3898C10.4933 43.3798 10.5284 43.3638 10.5635 43.3658C10.9829 43.3999 11.4042 43.4179 11.8196 43.48C12.4633 43.5762 13.0406 43.8527 13.5653 44.2455C13.9183 44.51 14.2694 44.7765 14.6225 45.039C14.6966 45.0951 14.7766 45.1452 14.8897 45.1713C14.5659 44.4178 14.2421 43.6644 13.9183 42.9069C13.6297 42.8809 13.3254 42.8648 13.025 42.8228C12.3541 42.7246 11.726 42.4961 11.1584 42.1054C10.8249 41.8749 10.5343 41.5984 10.3041 41.2598C9.75994 40.4642 9.28598 39.6286 8.97585 38.7049C8.88028 38.4183 8.79836 38.1258 8.81006 37.7991C8.97585 37.7631 9.12799 37.8132 9.27428 37.8492C10.5713 38.1719 11.6714 38.8211 12.4965 39.9232C12.6954 40.1897 12.8963 40.4522 13.0952 40.7167C13.1128 40.7087 13.1284 40.7007 13.146 40.6927C12.9314 39.7849 12.7188 38.8772 12.5023 37.9594C12.3775 37.9374 12.2624 37.9194 12.1493 37.8973C10.7547 37.6228 9.72288 36.8173 8.99731 35.5829C8.50579 34.7453 8.24248 33.8295 8.15276 32.8597C8.1274 32.5832 8.1157 32.3046 8.09619 31.99C8.22687 32.0121 8.3244 32.0201 8.41802 32.0461C9.01291 32.2064 9.51223 32.5451 9.96864 32.9539C10.6923 33.6051 11.2755 34.3706 11.6695 35.2803C11.7709 35.5148 11.8821 35.7432 11.9932 35.9736C12.0264 36.0418 12.0732 36.1019 12.1532 36.152C12.1278 35.9015 12.1064 35.653 12.0771 35.4026C11.9893 34.615 11.8938 33.8295 11.8118 33.04C11.7982 32.9078 11.7494 32.8376 11.6382 32.7875C11.4666 32.7114 11.2989 32.6232 11.1253 32.5551C9.84186 32.0501 9.05777 31.0863 8.66963 29.7557C8.39851 28.824 8.33805 27.8681 8.3595 26.9023C8.36536 26.6558 8.38291 26.4093 8.39461 26.1569C8.59746 26.1589 8.7574 26.243 8.91344 26.3272C9.27037 26.5216 9.55904 26.8001 9.82236 27.1107C10.3334 27.7138 10.7196 28.3971 11.0434 29.1205C11.2696 29.6255 11.4061 30.1585 11.5134 30.7016C11.5602 30.942 11.6324 31.1785 11.7202 31.4129C11.7962 30.1305 11.7962 28.852 11.8079 27.5776C11.7767 27.5575 11.7572 27.5395 11.7377 27.5315C10.9302 27.2209 10.3704 26.6318 9.96864 25.8663C9.62341 25.209 9.42836 24.5017 9.33279 23.7683C9.23332 23.0108 9.21966 22.2494 9.36985 21.4959C9.42446 21.2234 9.51613 20.9569 9.60781 20.6944C9.64877 20.5782 9.72873 20.476 9.79505 20.3618C10.0467 20.502 10.2339 20.6824 10.4114 20.8727C10.8717 21.3677 11.1818 21.9568 11.4159 22.59C11.6851 23.3194 11.843 24.0769 11.9367 24.8504C11.9503 24.9606 11.9698 25.0708 12.0225 25.185C12.0869 24.8864 12.1551 24.5899 12.2136 24.2893C12.319 23.7482 12.4145 23.2032 12.5257 22.6642C12.5667 22.4678 12.5335 22.3055 12.4184 22.1472C12.1688 21.8085 11.9191 21.4699 11.6812 21.1232C11.4256 20.7545 11.2345 20.3497 11.1584 19.9009C11.1058 19.5863 11.0629 19.2657 11.0609 18.9471C11.0531 17.849 11.2247 16.7769 11.6207 15.7529C11.7143 15.5085 11.8469 15.28 11.9718 15.0496C12.0186 14.9614 12.0908 14.8893 12.1668 14.7871C12.4672 15.1818 12.7188 15.5726 12.9178 15.9994C13.1596 16.5184 13.2669 17.0755 13.3371 17.6406C13.3917 18.0694 13.4385 18.4982 13.4912 18.927C13.497 18.9731 13.5107 19.0192 13.5282 19.0993C13.5751 19.0332 13.6102 18.9971 13.6297 18.9531C13.7955 18.6004 13.9691 18.2517 14.1173 17.889C14.3357 17.356 14.3182 16.831 14.0315 16.32C13.6609 15.6608 13.5458 14.9394 13.5848 14.1899C13.6121 13.6509 13.7291 13.1279 13.8988 12.6189C14.2246 11.6411 14.679 10.7333 15.2934 9.91576C15.3636 9.82158 15.4436 9.73542 15.5431 9.61719C15.625 9.72139 15.705 9.80555 15.7654 9.90174C15.9878 10.2504 16.0853 10.6472 16.1419 11.0539C16.2316 11.7072 16.216 12.3645 16.1653 13.0197C16.138 13.3704 16.1068 13.719 16.0756 14.1058C16.138 14.0597 16.1828 14.0377 16.214 14.0016C16.4091 13.7631 16.6022 13.5207 16.7953 13.2802C16.9396 13.1019 17.0723 12.9095 17.2302 12.7472C17.3629 12.6129 17.3921 12.4887 17.3434 12.3023C17.2361 11.9016 17.1522 11.4948 17.0684 11.086C16.8987 10.2624 16.9689 9.46089 17.3102 8.69142C17.8466 7.48311 18.5761 6.41306 19.4928 5.47927C19.68 5.28891 19.8848 5.11858 20.1384 4.98633C20.2457 5.35303 20.2866 5.70771 20.3061 6.06439C20.3724 7.29274 20.0701 8.44495 19.5884 9.55507C19.4557 9.86166 19.3016 10.1602 19.1593 10.4608C19.128 10.5289 19.0988 10.5971 19.0695 10.6652C19.0832 10.6752 19.0949 10.6852 19.1085 10.6973C19.1437 10.6772 19.1846 10.6632 19.2158 10.6371C19.4382 10.4488 19.6547 10.2524 19.8809 10.0701C20.2067 9.80555 20.4466 9.47492 20.6007 9.08016C20.6845 8.86575 20.7645 8.64734 20.8406 8.42892C21.4179 6.75972 22.5804 5.73977 24.2012 5.2308C24.642 5.09253 25.0945 5.0224 25.5822 4.99034C25.5822 5.06448 25.59 5.12459 25.5822 5.1827C25.4008 6.21869 25.0224 7.17251 24.3709 7.98206C23.7448 8.76155 22.912 9.24648 21.9796 9.54906C21.7124 9.63523 21.4413 9.70737 21.1741 9.79553C20.4485 10.036 19.8829 10.5089 19.3992 11.1121C19.4733 11.076 19.5474 11.0419 19.6215 11.0038C19.9121 10.8496 20.195 10.6772 20.4934 10.543C21.5505 10.0721 22.6213 10.05 23.6999 10.4808C23.9711 10.5891 24.1954 10.7754 24.4567 10.9538C24.3846 11.0419 24.3378 11.1261 24.2675 11.1802C23.2903 11.9477 22.2546 12.6109 21.0649 12.9736C20.4056 13.176 19.7288 13.2061 19.05 13.1259C18.5722 13.0678 18.0962 12.9816 17.6067 12.9055C17.6067 12.9055 17.5911 12.9095 17.5813 12.9195C17.1717 13.4646 16.7621 14.0096 16.3545 14.5566C15.9605 15.0857 15.6055 15.6407 15.3831 16.2739C15.3558 16.3541 15.3344 16.4362 15.309 16.5164C15.3207 16.5224 15.3305 16.5284 15.3422 16.5324L15.3539 16.5485Z" fill="white"/>
<path d="M52.8127 14.0256C52.8985 14.238 52.9707 14.4324 53.0545 14.6208C53.626 15.8912 54.2034 17.1616 54.7749 18.4341C55.3834 19.7947 55.9861 21.1553 56.5888 22.5179C56.6785 22.7223 56.7565 22.9307 56.8365 23.1411C56.8697 23.2292 56.8911 23.3214 56.9204 23.4156C56.8638 23.4557 56.8209 23.4897 56.776 23.5178C56.2475 23.8665 55.7872 24.2953 55.3776 24.7842C54.7163 25.5777 54.4043 26.5055 54.3828 27.5415C54.3633 28.4312 54.5311 29.2969 54.7788 30.1405C55.0889 31.1965 55.4341 32.2425 55.7618 33.2945C56.0466 34.2103 56.2865 35.136 56.4503 36.0839C56.8619 38.4704 56.4464 40.6987 55.2859 42.7967C54.6032 44.0311 53.747 45.1272 52.7776 46.1351C51.7126 47.2432 50.5423 48.2251 49.3194 49.1469C47.9424 50.1848 46.5185 51.1527 45.0752 52.0865C44.3359 52.5654 43.5616 52.9782 42.7483 53.3088C40.8817 54.0703 39.0112 54.0523 37.1348 53.3409C36.3722 53.0523 35.6466 52.6876 34.9347 52.2869C32.5961 50.9643 30.3452 49.4955 28.227 47.8303C26.8948 46.7843 25.6446 45.6341 24.7025 44.1773C23.7994 42.7787 23.2358 41.2538 23.0349 39.5866C22.8652 38.1819 22.951 36.7892 23.2065 35.4046C23.4523 34.072 23.8541 32.7855 24.2403 31.4911C24.4607 30.7496 24.6635 30.0022 24.8039 29.2367C25.1219 27.4894 24.7766 25.9124 23.6629 24.5337C23.4484 24.2692 23.2143 24.0208 22.99 23.7663C22.9217 23.6881 22.8515 23.614 22.7872 23.5338C22.676 23.3936 22.6389 23.2373 22.7072 23.0629C22.7384 22.9808 22.7637 22.8966 22.7969 22.8165C23.8697 20.3357 24.9795 17.875 26.2375 15.4864C26.4774 15.0295 26.7622 14.5967 27.0236 14.1519C27.1074 14.0076 27.2167 13.9715 27.3747 13.9936C27.9403 14.0777 28.4845 14.24 29.0306 14.4044C29.7698 14.6268 30.5052 14.8672 31.2561 15.0456C33.0447 15.4704 34.7689 15.2239 36.4326 14.4544C37.4235 13.9956 38.348 13.4165 39.2355 12.7752C39.4071 12.651 39.5826 12.5288 39.7562 12.4105C39.9318 12.2903 40.1073 12.2963 40.277 12.4246C40.4214 12.5328 40.5657 12.643 40.7061 12.7572C41.301 13.2401 41.9252 13.675 42.5786 14.0677C43.9361 14.8833 45.397 15.282 46.973 15.256C48.1043 15.2359 49.1985 15.0035 50.2829 14.6929C50.95 14.5025 51.617 14.3062 52.2841 14.1198C52.4538 14.0717 52.6332 14.0577 52.8127 14.0256ZM38.7244 31.2546C38.1452 31.2827 37.0529 31.3207 35.9645 31.3929C34.962 31.459 33.9594 31.5472 32.9608 31.6494C31.6813 31.7816 30.4057 31.9319 29.1281 32.0842C28.7965 32.1243 28.465 32.1804 28.1412 32.2625C27.5502 32.4148 27.1406 32.7956 26.9046 33.3727C26.85 33.5049 26.7993 33.6412 26.7642 33.7794C26.4228 35.114 26.179 36.4646 26.1615 37.8512C26.1342 39.7849 26.6354 41.5503 27.7043 43.1454C28.2797 44.005 28.9818 44.7384 29.7484 45.4117C30.9733 46.4878 32.3093 47.3995 33.7 48.2291C34.6909 48.8202 35.7285 49.3172 36.7545 49.8402C37.4995 50.2189 38.2524 50.5495 39.0716 50.7099C39.331 50.7599 39.5904 50.8201 39.846 50.8862C40.3901 51.0305 40.8856 50.9303 41.3654 50.6297C42.6098 49.8522 43.8698 49.0988 45.1181 48.3273C46.2747 47.6139 47.4021 46.8565 48.4261 45.9467C49.3291 45.1432 50.1757 44.2775 50.9734 43.3678C51.6639 42.5823 52.2627 41.7206 52.723 40.7668C53.2164 39.7429 53.47 38.6608 53.4251 37.5186C53.3803 36.3764 53.1638 35.2643 52.838 34.1722C52.7191 33.7734 52.5689 33.3867 52.3543 33.03C52.1807 32.7435 51.9506 32.5511 51.617 32.495C51.0787 32.4048 50.5443 32.2906 50.006 32.2124C49.1341 32.0842 48.2622 31.97 47.3884 31.8598C46.2064 31.7115 45.0225 31.5592 43.8386 31.439C42.3094 31.2827 40.7744 31.2486 38.7264 31.2546H38.7244ZM40.7178 17.2097C40.7178 17.3239 40.7178 17.4121 40.7178 17.4983C40.6964 21.2154 40.673 24.9305 40.6515 28.6476C40.6515 28.7037 40.6476 28.7598 40.6515 28.8159C40.6671 28.9983 40.7666 29.1045 40.9421 29.1305C41.0045 29.1386 41.067 29.1426 41.1274 29.1506C42.3562 29.3049 43.585 29.4692 44.8138 29.6135C45.7968 29.7277 46.7818 29.8219 47.7668 29.9201C48.8747 30.0303 49.9845 30.1325 51.0943 30.2367C51.184 30.2447 51.2757 30.2367 51.381 30.2367C51.3849 30.1445 51.3947 30.0663 51.3908 29.9882C51.3518 29.3249 51.3011 28.6616 51.2738 27.9984C51.2543 27.5435 51.2406 27.0846 51.2738 26.6318C51.3381 25.7721 51.6678 25.0046 52.1729 24.3213C52.4226 23.9847 52.6996 23.6681 52.9863 23.3635C53.1501 23.1892 53.2262 23.0329 53.1306 22.7944C53.0155 22.5059 52.9375 22.2013 52.8185 21.9167C52.2744 20.6102 51.5624 19.3959 50.8466 18.1856C50.7803 18.0714 50.6945 18.0654 50.5911 18.0794C50.2049 18.1335 49.8187 18.1816 49.4345 18.2437C48.3734 18.414 47.3143 18.6064 46.2416 18.6886C45.5686 18.7407 44.9035 18.7246 44.2599 18.4741C43.5597 18.2036 42.8594 17.9391 42.1592 17.6726C41.7009 17.4983 41.2405 17.3239 40.7178 17.2117V17.2097ZM38.5977 17.2779C38.4475 17.3179 38.3246 17.338 38.2115 17.3841C37.7121 17.5844 37.2109 17.7848 36.7174 18.0012C35.6388 18.4761 34.5134 18.7346 33.3431 18.7968C32.4478 18.8449 31.574 18.6785 30.7041 18.4882C30.0488 18.3459 29.3934 18.2156 28.7166 18.2096C28.5313 18.2096 28.4299 18.2738 28.3518 18.4321C28.1587 18.8248 27.95 19.2096 27.7667 19.6063C27.3337 20.5381 26.9358 21.4879 26.4716 22.4017C26.2317 22.8746 26.2473 23.2573 26.5204 23.6961C26.8149 24.167 27.0684 24.664 27.3181 25.1629C27.6945 25.9104 27.8603 26.7139 27.8486 27.5495C27.8369 28.341 27.7979 29.1346 27.7726 29.9261C27.7706 30.0102 27.7726 30.0944 27.7726 30.1966C31.3614 29.8179 34.923 29.4431 38.506 29.0644C38.5352 25.1289 38.5645 21.2194 38.5938 17.2758L38.5977 17.2779Z" fill="white"/>
<path d="M17.6419 61.0347C17.4742 60.9586 17.3181 60.9065 17.1796 60.8223C16.852 60.6239 16.5301 60.4095 16.2083 60.2011C15.906 60.0068 15.6076 59.8004 15.2506 59.6661C15.2292 59.7302 15.2019 59.7843 15.1921 59.8425C14.9834 61.1049 14.7767 62.3653 14.5719 63.6297C14.4587 64.323 14.3573 65.0204 14.2422 65.7137C14.2052 65.9341 14.1447 66.1485 13.9867 66.3429C13.9399 66.2788 13.8989 66.2227 13.858 66.1666C12.795 64.7138 11.3809 63.8782 9.63132 63.6658C9.00327 63.5896 8.37132 63.6517 7.74327 63.7259C7.51311 63.7539 7.28101 63.776 7.03135 63.802C7.01964 63.6778 7.00014 63.5756 7.00209 63.4734C7.01184 62.7701 7.01574 62.0647 7.04305 61.3614C7.09766 59.9206 7.17178 58.4818 7.22444 57.0411C7.25565 56.2015 7.26345 55.3599 7.28101 54.5203C7.28101 54.4802 7.28101 54.4401 7.28101 54.4C7.29271 54.0734 7.40584 53.9311 7.73352 53.9111C8.08265 53.8911 8.43568 53.8871 8.78482 53.9111C9.60792 53.9632 10.4291 54.0494 11.2385 54.2317C12.9491 54.6164 14.4704 55.3879 15.7655 56.6002C16.3292 57.1273 16.852 57.7024 17.3903 58.2574C17.5736 58.4478 17.6712 58.6782 17.6712 58.9487C17.6712 59.606 17.6712 60.2613 17.6712 60.9185C17.6712 60.9406 17.6614 60.9646 17.6419 61.0347Z" fill="white"/>
<path d="M19.9024 67.0622C19.9726 66.7977 20.0506 66.4911 20.2145 66.2146C20.2632 66.1345 20.3432 66.0743 20.429 66.1184C20.4973 66.1525 20.5538 66.2306 20.589 66.3028C20.6143 66.3529 20.6065 66.433 20.589 66.4891C20.5148 66.7236 20.431 66.956 20.351 67.1885C20.3432 67.2105 20.3295 67.2306 20.3178 67.2506C20.2593 67.3408 20.1911 67.4169 20.0721 67.3909C19.9668 67.3668 19.9004 67.2526 19.9024 67.0622Z" fill="white"/>
<path d="M27.2243 69.1481C27.1521 69.4086 27.0897 69.6731 27.0039 69.9296C26.9532 70.0839 26.8498 70.134 26.7386 70.104C26.6333 70.0759 26.5436 69.9597 26.5709 69.8214C26.6294 69.5329 26.7055 69.2483 26.7854 68.9638C26.8147 68.8596 26.8907 68.7834 27.0136 68.8015C27.117 68.8155 27.1853 68.9057 27.1989 69.0439C27.2028 69.076 27.1989 69.1081 27.1989 69.1401C27.2067 69.1421 27.2145 69.1441 27.2223 69.1461L27.2243 69.1481Z" fill="white"/>
<path d="M51.8492 70.5484C51.8316 70.6406 51.8277 70.6967 51.8082 70.7468C51.7458 70.9111 51.5663 70.9412 51.4571 70.8049C51.424 70.7628 51.3986 70.7087 51.3849 70.6566C51.3284 70.4182 51.2796 70.1757 51.2289 69.9372C51.225 69.9212 51.225 69.9052 51.2231 69.8892C51.2172 69.7208 51.2757 69.6066 51.381 69.5766C51.4981 69.5425 51.6132 69.6146 51.6658 69.793C51.7419 70.0515 51.7945 70.316 51.8492 70.5464V70.5484Z" fill="white"/>
<path d="M43.946 71.5454C43.9324 71.4652 43.9168 71.4031 43.9148 71.341C43.9109 71.2147 43.9148 71.0885 43.9148 70.9643C44.1138 70.9342 44.1664 70.9723 44.1976 71.1646C44.2347 71.3991 44.1762 71.4953 43.948 71.5454H43.946Z" fill="white"/>
<path d="M19.0793 65.3867C19.2744 65.4809 19.3153 65.5851 19.2373 65.7875C19.1671 65.9698 19.0969 66.0019 18.8823 65.9338C18.9155 65.7394 18.9955 65.5631 19.0793 65.3887V65.3867Z" fill="white"/>
<path d="M30.0411 70.8006C29.9396 70.7725 29.8382 70.7445 29.7212 70.7104C29.8304 70.4479 29.9299 70.2095 30.0352 69.959C30.0859 70.1073 30.0879 70.484 30.0391 70.8006H30.0411Z" fill="white"/>
<path d="M17.8308 64.7286C18.0492 64.8468 18.0843 64.979 17.979 65.1854C17.8971 65.3478 17.8269 65.3658 17.6182 65.2656C17.6864 65.0933 17.7547 64.9189 17.8308 64.7266V64.7286Z" fill="white"/>
<path d="M54.6404 69.0378C54.5858 68.8514 54.5331 68.6731 54.4824 68.4967C54.5468 68.4025 54.6346 68.3885 54.7106 68.4386C54.8394 68.5228 54.8667 68.6671 54.8608 68.8153C54.855 68.9436 54.7808 69.0097 54.6424 69.0378H54.6404Z" fill="white"/>
<path d="M48.7811 44.1734C47.6264 43.8789 46.4873 43.7827 45.3443 43.6925C43.7742 43.5663 42.2548 43.8248 40.751 44.2476C40.6691 44.2716 40.5852 44.2897 40.5033 44.3177C40.0117 44.488 39.53 44.45 39.0346 44.3097C38.3831 44.1253 37.7238 43.953 37.0607 43.8268C36.0523 43.6344 35.0322 43.6244 34.0102 43.6785C33.0018 43.7326 32.0207 43.947 31.0357 44.1514C30.9382 44.1714 30.8387 44.1794 30.708 44.1975C30.708 44.0973 30.708 44.0191 30.708 43.943C30.708 41.4121 30.7119 38.8793 30.708 36.3485C30.708 36.1881 30.7412 36.0739 30.8835 35.9958C31.1508 35.8495 31.4063 35.6812 31.6793 35.5469C31.7905 35.4928 31.8393 35.4327 31.8315 35.3165C31.8081 34.9858 31.9895 34.8095 32.2703 34.7233C32.5005 34.6512 32.7365 34.5991 32.9998 34.531C33.0037 34.4168 33.0076 34.2825 33.0096 34.1502C33.0096 33.8517 33.0661 33.7835 33.3548 33.7535C34.8118 33.6052 36.1947 33.8617 37.4995 34.547C38.1861 34.9077 38.8025 35.3626 39.2901 35.9878C39.4344 36.1741 39.608 36.3364 39.7913 36.5328C39.9103 36.4286 40.0215 36.3424 40.1171 36.2443C40.3336 36.0238 40.5403 35.7954 40.7529 35.573C41.6716 34.6131 42.7951 34.0701 44.0765 33.8517C44.7865 33.7314 45.5004 33.6894 46.2201 33.7375C46.2747 33.7415 46.3293 33.7435 46.3839 33.7515C46.5595 33.7795 46.6102 33.8356 46.616 34.02C46.6199 34.1803 46.616 34.3386 46.616 34.521C46.735 34.553 46.854 34.5811 46.971 34.6151C47.1583 34.6712 47.3455 34.7253 47.5269 34.7915C47.6693 34.8436 47.7532 34.9418 47.7571 35.1141C47.7629 35.3586 47.8721 35.5249 48.1081 35.6251C48.3364 35.7233 48.5431 35.8735 48.7616 35.9958C48.8708 36.0579 48.902 36.1441 48.9 36.2703C48.8805 37.4967 48.8669 38.721 48.8513 39.9473C48.8337 41.2538 48.8181 42.5583 48.8006 43.8648C48.8006 43.959 48.7908 44.0532 48.785 44.1694L48.7811 44.1734ZM33.6688 34.4168V40.7529C33.7683 40.7529 33.8541 40.7529 33.938 40.7529C34.4529 40.7489 34.9659 40.7769 35.475 40.8591C36.692 41.0555 37.7707 41.5524 38.6874 42.404C38.8668 42.5704 39.0424 42.7407 39.2257 42.903C39.2979 42.9671 39.3817 43.0152 39.4812 43.0853C39.489 43.0132 39.4968 42.9832 39.4968 42.9531C39.4968 41.2138 39.4988 39.4764 39.4968 37.7371C39.4968 37.3644 39.3759 37.0318 39.1457 36.7392C38.4572 35.8595 37.6185 35.1922 36.5809 34.7955C35.6583 34.4428 34.6987 34.3767 33.7273 34.3907C33.7137 34.3907 33.7 34.4027 33.6688 34.4168ZM45.947 40.7489V34.4168C45.9178 34.4027 45.9041 34.3927 45.8885 34.3907C45.8339 34.3867 45.7793 34.3827 45.7247 34.3847C45.0537 34.4047 44.3867 34.4628 43.7313 34.6151C42.5357 34.8957 41.5136 35.4728 40.6983 36.4326C40.2478 36.9636 40.0332 37.5528 40.08 38.2581C40.1112 38.705 40.1073 39.1538 40.1073 39.6027C40.1093 40.6667 40.1073 41.7328 40.1073 42.7968C40.1073 42.879 40.1151 42.9611 40.119 43.0853C40.2204 43.0092 40.2848 42.9651 40.3433 42.915C40.4799 42.7948 40.6144 42.6726 40.7451 42.5483C41.9661 41.3861 43.4173 40.821 45.0693 40.7689C45.356 40.7589 45.6428 40.7549 45.9431 40.7469L45.947 40.7489ZM48.2778 43.3579V36.3825C48.1257 36.3224 47.9755 36.2242 47.7688 36.2322C47.7688 36.7853 47.7688 37.3203 47.7688 37.8553C47.7688 38.3924 47.7688 38.9274 47.7688 39.4644C47.7688 40.0014 47.7688 40.5385 47.7649 41.0735C47.761 41.6045 47.7824 42.1375 47.7473 42.6926C45.869 42.4401 44.0395 42.5002 42.2509 43.1174C42.364 43.1515 42.4771 43.1655 42.5883 43.1575C43.3178 43.1074 44.0473 43.0353 44.7787 43.0052C45.1727 42.9892 45.5725 43.0192 45.9665 43.0633C46.5244 43.1254 47.0764 43.2216 47.6322 43.2978C47.839 43.3258 48.0477 43.3358 48.2778 43.3559V43.3579ZM31.849 42.6706V36.2262C31.4453 36.2703 31.3127 36.4326 31.3146 36.8554C31.3185 38.9454 31.3224 41.0374 31.3283 43.1274C31.3283 43.1976 31.338 43.2657 31.3419 43.3438C31.3926 43.3438 31.4219 43.3479 31.4531 43.3438C32.0636 43.2637 32.6721 43.1655 33.2846 43.1034C33.8424 43.0473 34.4041 42.9972 34.962 43.0012C35.6934 43.0072 36.4248 43.0713 37.1563 43.1114C37.2187 43.1154 37.2811 43.1114 37.3845 43.1114C37.326 43.0673 37.3103 43.0473 37.2889 43.0413C36.6491 42.8669 36.0035 42.7146 35.3443 42.6405C34.5504 42.5523 33.7566 42.5784 32.9628 42.6245C32.6058 42.6445 32.2489 42.6545 31.8471 42.6686L31.849 42.6706ZM33.0193 35.2243C32.5297 35.2524 32.479 35.3025 32.479 35.7693C32.481 37.7471 32.4868 39.7249 32.4907 41.7027C32.4907 41.7708 32.5005 41.841 32.5063 41.9251C32.6019 41.9251 32.678 41.9251 32.756 41.9251C33.5732 41.9412 34.3924 41.9412 35.2077 41.9792C35.8768 42.0113 36.538 42.1235 37.1719 42.37C37.2928 42.4161 37.4274 42.4341 37.5581 42.4501C37.601 42.4561 37.6497 42.4181 37.7102 42.396C37.679 42.36 37.6692 42.3359 37.6497 42.3279C37.2538 42.1395 36.8617 41.9412 36.4599 41.7708C35.7929 41.4863 35.0868 41.4322 34.3729 41.4422C34.0141 41.4482 33.6571 41.4422 33.2982 41.4362C33.2105 41.4362 33.1207 41.4081 33.0174 41.3921V35.2263L33.0193 35.2243ZM46.5985 41.4382C46.4932 41.4382 46.4171 41.4382 46.341 41.4382C45.9665 41.4382 45.592 41.4322 45.2195 41.4382C44.6656 41.4482 44.1155 41.5043 43.5733 41.6306C43.0447 41.7528 42.5415 41.9412 42.1105 42.2938C42.048 42.3439 41.9954 42.404 41.9369 42.4602C41.9466 42.4742 41.9564 42.4902 41.9661 42.5042C42.2353 42.4301 42.5064 42.364 42.7736 42.2818C43.6767 42.0013 44.5973 41.875 45.5413 41.9171C45.9451 41.9351 46.3527 41.9271 46.7565 41.9251C46.8794 41.9251 47.0003 41.9031 47.1232 41.8931V35.3606C46.9535 35.3045 46.7955 35.2524 46.5985 35.1882V41.4422V41.4382Z" fill="white"/>
<path d="M48.666 21.1986C48.6465 21.3509 48.6094 21.417 48.506 21.4631C48.2934 21.5573 48.2778 21.6094 48.3266 21.8378C48.4397 22.3729 48.6562 22.8698 48.8513 23.3748C48.9429 23.6132 49.0385 23.8497 49.1146 24.0922C49.1614 24.2404 49.1867 24.4028 49.0639 24.5891C48.7908 23.8737 48.5275 23.1864 48.2661 22.4991C48.2505 22.5011 48.2349 22.5031 48.2193 22.5051C48.1569 23.2125 48.272 23.9299 48.0828 24.6412C48.0633 24.5991 48.0321 24.5571 48.0262 24.513C48.0048 24.3547 47.9813 24.1944 47.9774 24.0361C47.9696 23.5952 47.9716 23.1544 47.9677 22.7135C47.9677 22.6113 47.9579 22.5111 47.9287 22.4049C47.7375 22.7436 47.6147 23.1063 47.4645 23.459C47.3123 23.8176 47.1504 24.1703 46.971 24.523C46.9183 24.4128 46.9398 24.3046 46.9827 24.2004C47.0724 23.9779 47.1661 23.7575 47.2519 23.5351C47.4157 23.1123 47.5796 22.6875 47.7395 22.2627C47.7765 22.1665 47.798 22.0643 47.8195 21.9621C47.9053 21.5553 47.8936 21.5333 47.5191 21.377C47.1426 21.2187 46.7604 21.0844 46.3449 21.1024C46.2903 21.1044 46.2357 21.1065 46.1811 21.1125C46.0543 21.1265 45.9626 21.1766 45.949 21.3289C45.9314 21.5032 45.8807 21.6775 45.8768 21.8499C45.869 22.3709 45.8651 22.8919 45.8885 23.4109C45.8982 23.6393 45.9607 23.8697 46.027 24.0902C46.144 24.4769 46.1343 24.8456 45.9607 25.2103C45.8748 25.3907 45.8378 25.573 45.9158 25.7654C46.0192 26.0239 46.1069 26.2924 46.3547 26.4547C46.5243 26.5669 46.6901 26.6871 46.8598 26.7993C46.9983 26.8895 47.1329 26.9897 47.2831 27.0498C47.4489 27.116 47.5386 27.2202 47.5639 27.4105C47.3787 27.5267 47.1661 27.5368 46.9632 27.5388C46.1538 27.5428 45.3424 27.5348 44.5329 27.5267C44.332 27.5267 44.1292 27.5107 43.9166 27.5007C43.9107 27.3043 43.9887 27.1721 44.1448 27.0879C44.2482 27.0318 44.3554 26.9857 44.4588 26.9296C44.5271 26.8915 44.6109 26.8575 44.6499 26.7953C44.7631 26.613 44.9386 26.5368 45.1122 26.4467C45.3755 26.3084 45.5101 26.072 45.5433 25.7754C45.5706 25.5409 45.5355 25.3105 45.4535 25.0921C45.3229 24.7414 45.3248 24.3907 45.4379 24.0341C45.5511 23.6734 45.5998 23.3027 45.5881 22.9219C45.5784 22.6173 45.592 22.3128 45.5862 22.0082C45.5823 21.8479 45.5686 21.6876 45.5413 21.5313C45.4789 21.1666 45.2956 21.0263 44.9347 21.0564C44.9113 21.0564 44.8879 21.0604 44.8645 21.0644C44.4256 21.1525 44.0199 21.3329 43.6259 21.5313C43.5869 21.7417 43.6318 21.932 43.6942 22.1104C43.8698 22.6073 44.0531 23.0983 44.2384 23.5912C44.3145 23.7936 44.4061 23.988 44.4822 24.1883C44.5271 24.3046 44.5778 24.4288 44.4764 24.5811C44.4159 24.4809 44.3515 24.4008 44.3145 24.3106C44.1877 24.002 44.0668 23.6894 43.9478 23.3768C43.8464 23.1083 43.7547 22.8358 43.6533 22.5672C43.624 22.4891 43.5791 22.415 43.5421 22.3388C43.5245 22.3408 43.505 22.3448 43.4875 22.3468C43.4485 23.0822 43.4075 23.8196 43.3646 24.6011C43.3275 24.531 43.2944 24.4989 43.2924 24.4629C43.271 24.2084 43.2437 23.9539 43.2398 23.6994C43.2359 23.3948 43.2534 23.0902 43.2573 22.7857C43.2573 22.6855 43.2515 22.5873 43.2242 22.4831C42.8594 23.1283 42.7365 23.8737 42.3777 24.5751C42.3133 24.3346 42.3211 24.1583 42.3894 23.9759C42.6098 23.3948 42.8263 22.8117 43.035 22.2246C43.0915 22.0683 43.1227 21.902 43.15 21.7377C43.1715 21.6174 43.1247 21.5212 43.0037 21.4691C42.9101 21.4291 42.8185 21.379 42.8126 21.2207C42.9413 21.2106 43.0681 21.1946 43.1968 21.1906C43.3607 21.1846 43.5284 21.2066 43.6864 21.1766C43.8756 21.1405 44.0726 21.0924 44.2384 20.9962C44.6207 20.7758 45.0088 20.7057 45.4282 20.846C45.4496 20.854 45.473 20.85 45.514 20.85C45.5316 20.7458 45.5394 20.6376 45.5725 20.5394C45.6057 20.4372 45.6642 20.343 45.7227 20.2188C45.8475 20.3851 45.9626 20.5093 45.9607 20.7057C45.9607 20.8159 46.0289 20.858 46.1362 20.8219C46.5126 20.6937 46.8579 20.7838 47.1875 20.9802C47.4586 21.1405 47.7531 21.2006 48.0633 21.1926C48.2564 21.1866 48.4495 21.1926 48.6621 21.1926L48.666 21.1986Z" fill="white"/>
<path d="M46.5947 24.7386C47.5875 24.8207 48.5686 24.8809 49.5536 24.7266C49.4327 25.2957 48.8651 25.7425 48.2546 25.7726C47.529 25.8086 46.7976 25.3638 46.5947 24.7386Z" fill="white"/>
<path d="M41.9331 24.7347C42.9161 24.871 43.8914 24.871 44.8686 24.7207C44.7847 25.2637 44.104 25.7647 43.4389 25.7948C42.766 25.8248 42.0794 25.3539 41.9331 24.7347Z" fill="white"/>
<path d="M37.788 23.303C37.5501 23.4673 37.355 23.6136 37.1483 23.7359C36.9942 23.828 36.9298 23.9322 36.9591 24.1226C37.0078 24.4232 37.0293 24.7257 37.0585 25.0283C37.0663 25.1225 37.0585 25.2167 37.0585 25.3429C36.922 25.3189 36.7972 25.2968 36.6528 25.2708C36.6197 24.858 36.7582 24.4612 36.7309 24.0324C36.4032 24.1166 36.1828 24.3731 35.8609 24.4572C35.859 24.7217 35.8395 24.9762 35.857 25.2287C35.8726 25.4371 35.781 25.5313 35.6152 25.6054C35.227 25.7838 34.8194 25.888 34.4039 25.9481C33.1751 26.1264 31.9483 26.1084 30.7312 25.8559C30.4425 25.7958 30.1656 25.6816 29.8808 25.5994C29.7014 25.5473 29.6389 25.4291 29.6467 25.2427C29.6546 25.0504 29.6331 24.858 29.6389 24.6656C29.6448 24.5174 29.5843 24.4372 29.4595 24.3671C28.927 24.0665 28.3984 23.7579 27.8699 23.4513C27.8172 23.4213 27.7665 23.3832 27.6885 23.3331C27.8133 23.2469 27.9167 23.1648 28.0318 23.1006C29.087 22.4995 30.1422 21.8943 31.2013 21.3012C31.6382 21.0567 32.0907 20.8383 32.5315 20.5999C32.668 20.5257 32.7929 20.5237 32.9294 20.5958C33.2961 20.7882 33.6706 20.9686 34.0353 21.1649C35.1451 21.7641 36.253 22.3672 37.357 22.9764C37.4993 23.0546 37.6203 23.1728 37.7861 23.299L37.788 23.303ZM35.4748 25.4612C35.4065 25.2447 35.2309 25.1946 35.0691 25.1566C34.8428 25.1025 34.6107 25.0684 34.3786 25.0504C33.3682 24.9702 32.356 25.0023 31.3456 25.0564C31.0511 25.0724 30.7566 25.1045 30.464 25.1466C30.2729 25.1746 30.1149 25.2748 30.0212 25.4632C31.1018 25.882 34.1601 25.9741 35.4748 25.4632V25.4612ZM35.7673 23.8441C35.6269 23.5776 35.5079 23.4573 35.268 23.313C34.9423 23.1167 34.5834 23.0065 34.2147 22.9323C33.4443 22.778 32.6661 22.762 31.8878 22.8482C31.408 22.9003 30.9282 22.9784 30.4796 23.1708C30.2943 23.2489 30.1227 23.3631 29.9569 23.4774C29.8593 23.5455 29.795 23.6537 29.793 23.824C30.0739 23.5555 30.3938 23.4533 30.7195 23.3712C31.5504 23.1608 32.393 23.1026 33.2473 23.1267C33.9826 23.1467 34.6829 23.299 35.3441 23.6357C35.4689 23.6998 35.5937 23.7599 35.7693 23.8461L35.7673 23.8441Z" fill="white"/>
<path d="M36.7078 25.498H37.014C37.1525 25.8126 37.1818 26.1453 37.0764 26.4819C37.0004 26.7264 36.7761 26.7484 36.5596 26.8146C36.5693 26.3617 36.5323 25.9229 36.7078 25.498Z" fill="white"/>
</g>
<defs>
<clipPath id="clip0_57_23">
<rect width="66" height="70" fill="white" transform="translate(7 5)"/>
</clipPath>
</defs>
</svg>
